<svg id="图层_1" data-name="图层 1" xmlns="http://www.w3.org/2000/svg" xmlns:xlink="http://www.w3.org/1999/xlink" viewBox="0 0 109.81 96.24">
    <defs>
        <style>.cls-1{fill:url(#未命名的渐变_6);}.cls-2{fill:none;stroke:#3e3a39;stroke-miterlimit:10;stroke-width:5.3px;}</style>
        <linearGradient id="未命名的渐变_6" x1="42.48" y1="71.53" x2="91.91" y2="71.53" gradientUnits="userSpaceOnUse"><stop offset="0" stop-color="#f4cc86"/>
        <stop offset="0.55" stop-color="#e59189"/>
        </linearGradient>
    </defs>
    <title>未标题-1</title>
        
    <circle class="cls-1" cx="67.2" cy="71.53" r="24.72"/>
    <path class="cls-2" d="M296.79,223.53c-1.57-4.72-5.75-4.91-8.53-12.78s-6.8-12.59-9.76-15.15a10.66,10.66,0,0,0-6.36-2.35h-.6a10.69,10.69,0,0,0-6.37,2.35c-3,2.56-7,7.28-9.75,15.15s-7,8.06-8.54,12.78-6.09,22.15,21.42,22l3.56.16,3.51-.16C302.88,245.68,298.36,228.25,296.79,223.53Z" transform="translate(-215.54 -153.02)"/>
    <path class="cls-2" d="M238.5,170.87c-.16,2.59-.48,8.18,3.48,12a12.47,12.47,0,0,0,8.87,3.17c1.71,0,6.08.16,9.18-2.86,2.72-2.64,2.9-6.18,3.08-9.7.27-5.2.61-11.75-4.28-15.46a12.91,12.91,0,0,0-13.74-.66C239.11,160.73,238.68,167.89,238.5,170.87Z" transform="translate(-215.54 -153.02)"/>
    <path class="cls-2" d="M218.19,205.35c0,1.56-.11,6.2,3.38,9.34a11,11,0,0,0,7.26,2.6,11.11,11.11,0,0,0,8-2.86c2.87-2.79,3-6.44,3.11-8,0-1.1.37-8-5.06-11.68-.35-.24-5.22-3.43-10.25-1.3C218.63,196,218.22,203.77,218.19,205.35Z" transform="translate(-215.54 -153.02)"/>
    <path class="cls-2" d="M281,174.07c0,2.14.12,6.41,3.37,9.34a11,11,0,0,0,7.27,2.59,11.89,11.89,0,0,0,8-2.85,12.23,12.23,0,0,0,3.84-7.52c.16-1,1.26-8.62-4.48-13.11-3.08-2.41-8.05-3.82-12.2-1.74C280.8,163.82,281,172.05,281,174.07Z" transform="translate(-215.54 -153.02)"/>
    <path class="cls-2" d="M300,205.09c0,2.14.12,6.42,3.37,9.34a10.94,10.94,0,0,0,7.27,2.6,11.89,11.89,0,0,0,8.05-2.85,12.31,12.31,0,0,0,3.84-7.52c.15-1,1.26-8.62-4.48-13.11-3.09-2.41-8.05-3.82-12.2-1.74C299.78,194.85,300,203.08,300,205.09Z" transform="translate(-215.54 -153.02)"/>
    
</svg>