<?xml version="1.0" encoding="utf-8"?>
<!-- Generator: Adobe Illustrator 23.0.4, SVG Export Plug-In . SVG Version: 6.00 Build 0)  -->
<svg version="1.1" id="图层_1" xmlns="http://www.w3.org/2000/svg" xmlns:xlink="http://www.w3.org/1999/xlink" x="0px" y="0px"
	 viewBox="0 0 595.3 841.9" style="enable-background:new 0 0 595.3 841.9;" xml:space="preserve">
<style type="text/css">
	.st0{fill:#E59189;}
	.st1{fill:url(#SVGID_1_);}
	.st2{fill:url(#SVGID_2_);}
	.st3{fill:url(#SVGID_3_);}
	.st4{fill:#FFFFFF;}
	.st5{fill:url(#SVGID_4_);}
	.st6{fill:url(#SVGID_5_);}
	.st7{fill:url(#SVGID_6_);}
	.st8{fill:url(#SVGID_7_);}
	.st9{fill:url(#SVGID_8_);}
</style>
<g>
	<path class="st0" d="M272.4,472.2L272.4,472.2c-9.3,0-16.8-7.5-16.8-16.8v-79.8c0-9.3,7.5-16.8,16.8-16.8h0
		c9.3,0,16.8,7.5,16.8,16.8v79.8C289.2,464.7,281.7,472.2,272.4,472.2z"/>
	<linearGradient id="SVGID_1_" gradientUnits="userSpaceOnUse" x1="272.4366" y1="470.8467" x2="272.4366" y2="358.7161">
		<stop  offset="0" style="stop-color:#B94950"/>
		<stop  offset="1" style="stop-color:#E59189"/>
	</linearGradient>
	<path class="st1" d="M272.4,358.7c-0.4,0.1-1.1,0.3-1.7,0.6c-3.3,2-3.1,7.7-2.9,12.9c0.2,5.5,0.3,10.3,2.9,15.7
		c2.6,5.3,6.3,8.4,8.7,11.5c6.6,8.5,7.8,18.2,8.6,28.1c1.1,13.4-0.3,40-11.4,43c-6.1,1.7-15.1-3.8-18.6-11.4
		c-7.1-15.6,15.3-26.6,11.9-49.9c-1.9-13.3-12.1-28.9-9.3-38.5c1.2-4,3.7-6.9,3.7-6.9C267.2,360.7,270.6,359.3,272.4,358.7z"/>
	<linearGradient id="SVGID_2_" gradientUnits="userSpaceOnUse" x1="280.474" y1="409.6651" x2="280.474" y2="359.0607">
		<stop  offset="0" style="stop-color:#B94950"/>
		<stop  offset="1" style="stop-color:#E59189"/>
	</linearGradient>
	<path class="st2" d="M275.8,359.1c0,0-2.1,2.6-2,5.9c0.1,4.8,0.9,7.9,4.8,16.6c6.8,15.3,7.4,18.4,7.3,21.7c-0.1,1.8-0.4,6.4,0,6.4
		c0.1,0,0.3-0.6,0.5-1.1c0.2-1.8,0.3-4.3,0.5-7.3c0.4-9,0.8-13.6-0.2-16.6c-1.5-4.7-9.2-18.2-9.4-20.6c-0.2-2.4,0.5-4.6,0.5-4.6
		S276.7,359.2,275.8,359.1z"/>
	<linearGradient id="SVGID_3_" gradientUnits="userSpaceOnUse" x1="260.079" y1="419.8401" x2="260.079" y2="381.1058">
		<stop  offset="0" style="stop-color:#B94950"/>
		<stop  offset="1" style="stop-color:#E59189"/>
	</linearGradient>
	<path class="st3" d="M258.8,387.5c0,0-3.7,14.2-2.3,19s5.2,10.4,4.9,13c-0.3,2.7,3.5-14.2,2.1-18.8c-1.5-4.6-4.2-14.3-4.3-18.5
		S258.8,387.5,258.8,387.5z"/>
	<path class="st4" d="M285.9,415.4v38.8c0,7-5.7,12.7-12.7,12.7H272c-7,0-12.7-5.7-12.7-12.7v-38.8"/>
	<linearGradient id="SVGID_4_" gradientUnits="userSpaceOnUse" x1="261.1756" y1="440.6144" x2="283.6711" y2="440.6144">
		<stop  offset="0" style="stop-color:#FAD2BD"/>
		<stop  offset="1" style="stop-color:#FFFFFF"/>
	</linearGradient>
	<path class="st5" d="M270.1,416.6c0,0-6.8,23-8.9,25.1v12.5c0,0,1.1,9.2,10.1,10.3c9,1.1,11.8-7.4,12.4-8.9s-4.2-32.3-3.9-34.1
		s1.5-4.9,1.5-4.9"/>
</g>
<g>
	<path class="st0" d="M327.1,369.6L327.1,369.6c-9.3,0-16.8,7.5-16.8,16.8v79.8c0,9.3,7.5,16.8,16.8,16.8h0
		c9.3,0,16.8-7.5,16.8-16.8v-79.8C343.9,377.1,336.4,369.6,327.1,369.6z"/>
	
		<linearGradient id="SVGID_5_" gradientUnits="userSpaceOnUse" x1="327.1666" y1="3740.8191" x2="327.1666" y2="3628.6885" gradientTransform="matrix(1 0 0 -1 0 4111.7334)">
		<stop  offset="0" style="stop-color:#B94950"/>
		<stop  offset="1" style="stop-color:#E59189"/>
	</linearGradient>
	<path class="st6" d="M327.1,483c-0.4-0.1-1.1-0.3-1.7-0.6c-3.3-2-3.1-7.7-2.9-12.9c0.2-5.5,0.3-10.3,2.9-15.7
		c2.6-5.3,6.3-8.4,8.7-11.5c6.6-8.5,7.8-18.2,8.6-28.1c1.1-13.4-0.3-40-11.4-43c-6.1-1.7-15.1,3.8-18.6,11.4
		c-7.1,15.6,15.3,26.6,11.9,49.9c-1.9,13.3-12.1,28.9-9.3,38.5c1.2,4,3.7,6.9,3.7,6.9C321.9,481.1,325.3,482.5,327.1,483z"/>
	
		<linearGradient id="SVGID_6_" gradientUnits="userSpaceOnUse" x1="335.2041" y1="3679.6375" x2="335.2041" y2="3629.033" gradientTransform="matrix(1 0 0 -1 0 4111.7334)">
		<stop  offset="0" style="stop-color:#B94950"/>
		<stop  offset="1" style="stop-color:#E59189"/>
	</linearGradient>
	<path class="st7" d="M330.5,482.7c0,0-2.1-2.6-2-5.9c0.1-4.8,0.9-7.9,4.8-16.6c6.8-15.3,7.4-18.4,7.3-21.7c-0.1-1.8-0.4-6.4,0-6.4
		c0.1,0,0.3,0.6,0.5,1.1c0.2,1.8,0.3,4.3,0.5,7.3c0.4,9,0.8,13.6-0.2,16.6c-1.5,4.7-9.2,18.2-9.4,20.6c-0.2,2.4,0.5,4.6,0.5,4.6
		S331.5,482.5,330.5,482.7z"/>
	
		<linearGradient id="SVGID_7_" gradientUnits="userSpaceOnUse" x1="314.8091" y1="3689.8125" x2="314.8091" y2="3651.0781" gradientTransform="matrix(1 0 0 -1 0 4111.7334)">
		<stop  offset="0" style="stop-color:#B94950"/>
		<stop  offset="1" style="stop-color:#E59189"/>
	</linearGradient>
	<path class="st8" d="M313.6,454.2c0,0-3.7-14.2-2.3-19c1.5-4.8,5.2-10.4,4.9-13s3.5,14.2,2.1,18.8c-1.5,4.6-4.2,14.3-4.3,18.5
		C314,463.8,313.6,454.2,313.6,454.2z"/>
	<path class="st4" d="M340.6,426.4v-38.8c0-7-5.7-12.7-12.7-12.7h-1.2c-7,0-12.7,5.7-12.7,12.7v38.8"/>
	
		<linearGradient id="SVGID_8_" gradientUnits="userSpaceOnUse" x1="320.6908" y1="3710.4441" x2="339.0598" y2="3710.4441" gradientTransform="matrix(1 0 0 -1 0 4111.7334)">
		<stop  offset="0" style="stop-color:#FAD2BD"/>
		<stop  offset="1" style="stop-color:#FFFFFF"/>
	</linearGradient>
	<path class="st9" d="M324.8,425.2c-1.5-3.1-2.9-7.1-3.7-11.8c-2.3-15.2,4.8-27.4,7.6-31.5l0,0l3.1-4.4l0,0c4.2,3.2,5.8,6.4,6.6,8.7
		c3.4,10.6-6.9,19.6-3.9,34.1c0.5,2.1,1.1,3.8,1.5,4.9"/>
</g>
</svg>
