<?xml version="1.0" encoding="utf-8"?>
<!-- Generator: Adobe Illustrator 23.0.4, SVG Export Plug-In . SVG Version: 6.00 Build 0)  -->
<svg version="1.1" id="图层_1" xmlns="http://www.w3.org/2000/svg" xmlns:xlink="http://www.w3.org/1999/xlink" x="0px" y="0px"
	 viewBox="0 0 595.3 841.9" style="enable-background:new 0 0 595.3 841.9;background-colo" xml:space="preserve">
<style type="text/css">
	.st0{fill:#E59189;}
	.st1{fill:url(#SVGID_1_);}
	.st2{fill:url(#SVGID_2_);}
	.st3{fill:url(#SVGID_3_);}
	.st4{fill:url(#SVGID_4_);}
	.st5{fill:url(#SVGID_5_);}
	.st6{fill:#FFFFFF;}
</style>
<g>
	<path class="st0" d="M305.1,480.2h-15.6c-6.2,0-11.2-5-11.2-11.2v-93.9c0-6.2,5-11.2,11.2-11.2h15.6c6.2,0,11.2,5,11.2,11.2V469
		C316.3,475.2,311.3,480.2,305.1,480.2z"/>
	<path class="st0" d="M347,439.5h-99.4c-6.2,0-11.2-5-11.2-11.2v-12.4c0-6.2,5-11.2,11.2-11.2H347c6.2,0,11.2,5,11.2,11.2v12.4
		C358.2,434.5,353.2,439.5,347,439.5z"/>
	<linearGradient id="SVGID_1_" gradientUnits="userSpaceOnUse" x1="284.646" y1="422.0259" x2="316.4318" y2="422.0259">
		<stop  offset="0" style="stop-color:#B94950"/>
		<stop  offset="1" style="stop-color:#E59189"/>
	</linearGradient>
	<path class="st1" d="M302.2,363.9c0,0,9,15.7,9,30.9s-1.9,31.2-9,41.5c-7.1,10.3-15.2,17.1-16.8,28c-1.6,10.9,0,15.1,0,15.1
		s2,0.7,3.1,0.7c1.1,0.1,17.7,0,17.7,0s4.9-0.3,7.5-3.9c2.6-3.6,2.2-4.1,2.7-7.3s-0.4-71.8-1.2-76.9
		C314.3,387.1,308.8,367.6,302.2,363.9z"/>
	<linearGradient id="SVGID_2_" gradientUnits="userSpaceOnUse" x1="281.8219" y1="414.0738" x2="302.8535" y2="414.0738">
		<stop  offset="0" style="stop-color:#B94950"/>
		<stop  offset="1" style="stop-color:#E59189"/>
	</linearGradient>
	<path class="st2" d="M291.2,363.9c0,0,11,19.9,11.6,31.8s-4.5,34.5-9.4,43.9c-4.9,9.3-8,24.8-8,24.8s7.7-42.7,6.2-53.9
		s-7.6-15.3-9.1-21.7s-1.2-21.3,5-23.7"/>
	<linearGradient id="SVGID_3_" gradientUnits="userSpaceOnUse" x1="236.3478" y1="440.0549" x2="282.3989" y2="440.0549">
		<stop  offset="0" style="stop-color:#B94950"/>
		<stop  offset="1" style="stop-color:#E59189"/>
	</linearGradient>
	<path class="st3" d="M236.3,415.8c1,1.9,4.2,7.7,9.1,11.4c0.8,0.6,2.6,1.9,5.1,3.3c0,0,2.4,1.3,4.6,2.2c2,0.7,4.7,1.3,10.9,1.9
		c13.6,1.2,15.8,5.8,15.8,5.8s1.7,6-0.7,14.2c-2.4,8.2-2.9,9.7-2.9,9.7l0.1-24.7c0,0-27-0.7-30.7-3.8
		C243.9,432.6,239.4,429.7,236.3,415.8z"/>
	<linearGradient id="SVGID_4_" gradientUnits="userSpaceOnUse" x1="238.0874" y1="402.8764" x2="284.1703" y2="402.8764">
		<stop  offset="0" style="stop-color:#B94950"/>
		<stop  offset="1" style="stop-color:#E59189"/>
	</linearGradient>
	<path class="st4" d="M238.1,409.8c0,0,2.2-2,8.2-1.8c6,0.3,6.5,3.8,11.8,6.5c5.3,2.7,15.7,3.6,21.9-1c6.2-4.5,3.7-13.1,3.7-13.1
		s-5.4-6.4-5.4-10.9s0.2,15.1,0.2,15.1l-30.8-0.1C247.6,404.6,242,404.1,238.1,409.8z"/>
	<linearGradient id="SVGID_5_" gradientUnits="userSpaceOnUse" x1="316.29" y1="422.035" x2="358.2344" y2="422.035">
		<stop  offset="0" style="stop-color:#B94950"/>
		<stop  offset="1" style="stop-color:#E59189"/>
	</linearGradient>
	<path class="st5" d="M331.1,404.6c0,0,8.5-0.4,12.4,3.1c4,3.4,9,8.1,7.4,13.5c-1.6,5.3-16.2,12.9-20.6,13.5s-5.3-0.5-9.3,0.8
		s-4.8,4.1-4.8,4.1s1.8-3.9,10.1-3.6c8.3,0.3,23.4-0.4,27.9-4.7c4.5-4.3,3.9-9.1,3.9-9.1v-6.2c0,0-0.1-9.9-10.2-11.2"/>
	<path class="st6" d="M336.5,429.6H258c-2.7,0-4.9-2.2-4.9-4.9V419c0-2.7,2.2-4.9,4.9-4.9h78.5c2.7,0,4.9,2.2,4.9,4.9v5.7
		C341.4,427.4,339.2,429.6,336.5,429.6z"/>
	<path class="st6" d="M307.1,382.2l-0.4,80.2c0,2.7-2.2,4.9-4.9,4.9l-8.3,0c-2.7,0-4.9-2.2-4.9-4.9l0.4-80.2c0-2.7,2.2-4.9,4.9-4.9
		l8.3,0C305,377.3,307.1,379.5,307.1,382.2z"/>
</g>
</svg>
