<?xml version="1.0" encoding="utf-8"?>
<!-- Generator: Adobe Illustrator 23.0.4, SVG Export Plug-In . SVG Version: 6.00 Build 0)  -->
<svg version="1.1" id="图层_1" xmlns="http://www.w3.org/2000/svg" xmlns:xlink="http://www.w3.org/1999/xlink" x="0px" y="0px"
	 viewBox="0 0 121.9 116.3" style="enable-background:new 0 0 121.9 116.3;" xml:space="preserve">
<style type="text/css">
	.st0{fill:#E59189;}
	.st1{fill:url(#SVGID_1_);}
	.st2{fill:url(#SVGID_2_);}
	.st3{fill:url(#SVGID_3_);}
	.st4{fill:url(#SVGID_4_);}
	.st5{fill:url(#SVGID_5_);}
	.st6{fill:#FFFFFF;}
</style>
<g>
	<path class="st0" d="M68.8,116.3H53.2c-6.2,0-11.2-5-11.2-11.2V11.2C42,5,47,0,53.2,0h15.6C75,0,80,5,80,11.2v93.9
		C80,111.3,75,116.3,68.8,116.3z"/>
	<path class="st0" d="M110.7,75.6H11.3c-6.2,0-11.2-5-11.2-11.2V52c0-6.2,5-11.2,11.2-11.2h99.4c6.2,0,11.2,5,11.2,11.2v12.4
		C121.9,70.6,116.9,75.6,110.7,75.6z"/>
	
		<linearGradient id="SVGID_1_" gradientUnits="userSpaceOnUse" x1="48.346" y1="55.9678" x2="80.1318" y2="55.9678" gradientTransform="matrix(1 0 0 -1 0 114.09)">
		<stop  offset="0" style="stop-color:#B94950"/>
		<stop  offset="1" style="stop-color:#E59189"/>
	</linearGradient>
	<path class="st1" d="M65.9,0c0,0,9,15.7,9,30.9s-1.9,31.2-9,41.5s-15.2,17.1-16.8,28c-1.6,10.9,0,15.1,0,15.1s2,0.7,3.1,0.7
		c1.1,0.1,17.7,0,17.7,0s4.9-0.3,7.5-3.9s2.2-4.1,2.7-7.3s-0.4-71.8-1.2-76.9C78,23.2,72.5,3.7,65.9,0z"/>
	
		<linearGradient id="SVGID_2_" gradientUnits="userSpaceOnUse" x1="45.5219" y1="63.84" x2="66.5535" y2="63.84" gradientTransform="matrix(1 0 0 -1 0 114.09)">
		<stop  offset="0" style="stop-color:#B94950"/>
		<stop  offset="1" style="stop-color:#E59189"/>
	</linearGradient>
	<path class="st2" d="M54.9,0c0,0,11,19.9,11.6,31.8S62,66.3,57.1,75.7c-4.9,9.3-8,24.8-8,24.8s7.7-42.7,6.2-53.9
		s-7.6-15.3-9.1-21.7S45,3.6,51.2,1.2"/>
	
		<linearGradient id="SVGID_3_" gradientUnits="userSpaceOnUse" x1="4.779053e-02" y1="37.94" x2="46.132" y2="37.94" gradientTransform="matrix(1 0 0 -1 0 114.09)">
		<stop  offset="0" style="stop-color:#B94950"/>
		<stop  offset="1" style="stop-color:#E59189"/>
	</linearGradient>
	<path class="st3" d="M0,51.9c1,1.9,4.2,7.7,9.1,11.4c0.8,0.6,2.6,1.9,5.1,3.3c0,0,2.4,1.3,4.6,2.2c2,0.7,4.7,1.3,10.9,1.9
		c13.6,1.2,15.8,5.8,15.8,5.8s1.7,6-0.7,14.2c-2.4,8.2-2.9,9.7-2.9,9.7L42,75.7c0,0-27-0.7-30.7-3.8C7.6,68.7,3.1,65.8,0,51.9z"/>
	
		<linearGradient id="SVGID_4_" gradientUnits="userSpaceOnUse" x1="1.8" y1="75.2068" x2="47.8983" y2="75.2068" gradientTransform="matrix(1 0 0 -1 0 114.09)">
		<stop  offset="0" style="stop-color:#B94950"/>
		<stop  offset="1" style="stop-color:#E59189"/>
	</linearGradient>
	<path class="st4" d="M1.8,45.9c0,0,2.2-2,8.2-1.8c6,0.3,6.5,3.8,11.8,6.5c5.3,2.7,15.7,3.6,21.9-1c6.2-4.5,3.7-13.1,3.7-13.1
		S42,30.1,42,25.6s0.2,15.1,0.2,15.1l-30.8-0.1C11.3,40.7,5.7,40.2,1.8,45.9z"/>
	
		<linearGradient id="SVGID_5_" gradientUnits="userSpaceOnUse" x1="79.99" y1="55.8969" x2="121.9166" y2="55.8969" gradientTransform="matrix(1 0 0 -1 0 114.09)">
		<stop  offset="0" style="stop-color:#B94950"/>
		<stop  offset="1" style="stop-color:#E59189"/>
	</linearGradient>
	<path class="st5" d="M94.8,40.7c0,0,8.5-0.4,12.4,3.1c4,3.4,9,8.1,7.4,13.5C113,62.6,98.4,70.2,94,70.8s-5.3-0.5-9.3,0.8
		s-4.8,4.1-4.8,4.1s1.8-3.9,10.1-3.6c8.3,0.3,23.4-0.4,27.9-4.7c4.5-4.3,3.9-9.1,3.9-9.1v-6.2c0,0-0.1-9.9-10.2-11.2"/>
	<path class="st6" d="M100.2,65.7H21.7c-2.7,0-4.9-2.2-4.9-4.9v-5.7c0-2.7,2.2-4.9,4.9-4.9h78.5c2.7,0,4.9,2.2,4.9,4.9v5.7
		C105.1,63.5,102.9,65.7,100.2,65.7z"/>
	<path class="st6" d="M70.8,18.3l-0.4,80.2c0,2.7-2.2,4.9-4.9,4.9h-8.3c-2.7,0-4.9-2.2-4.9-4.9l0.4-80.2c0-2.7,2.2-4.9,4.9-4.9h8.3
		C68.7,13.4,70.8,15.6,70.8,18.3z"/>
</g>
</svg>
