<svg id="图层_1" data-name="图层 1" xmlns="http://www.w3.org/2000/svg" viewBox="0 0 25.18 26.42"><defs><style>.cls-1{fill:none;stroke:#a1474f;stroke-linejoin:round;stroke-width:2px;}</style></defs><title>致电商家</title><g id="组_303" data-name="组 303"><path id="路径_253" data-name="路径 253" class="cls-1" d="M24.83,30.06a2.18,2.18,0,0,1,.26-.22L26.16,29a2.45,2.45,0,0,1,3.45.42h0l2.28,2.93a2.47,2.47,0,0,1-.43,3.46h0l-1.28,1a2.26,2.26,0,0,1-.42.26,1.44,1.44,0,0,1-.27.28c-1.91,1.48-6.9-1.74-11.13-7.19s-6.06-10.9-4.28-12.48a2.28,2.28,0,0,1,.81-1.12l1.28-1a2.46,2.46,0,0,1,3.45.44h0l2.28,2.93a2.45,2.45,0,0,1-.44,3.45l-1.28,1a2.17,2.17,0,0,1-.53.31s-.49,1.38,1.46,3.89S24.83,30.06,24.83,30.06Z" transform="translate(-12.41 -12.3)"/><path id="路径_254" data-name="路径 254" class="cls-1" d="M25.52,17.52c1.45-.46,3.69.66,5.35,2.79s2.12,4.27,1.52,5.62" transform="translate(-12.41 -12.3)"/><path id="路径_255" data-name="路径 255" class="cls-1" d="M24,13.41c2.9-.61,6.82,1.28,9.63,4.9,2.6,3.36,3.54,7.24,2.63,9.91" transform="translate(-12.41 -12.3)"/></g></svg>