<?xml version="1.0" encoding="utf-8"?>
<!-- Generator: Adobe Illustrator 23.0.4, SVG Export Plug-In . SVG Version: 6.00 Build 0)  -->
<svg version="1.1" id="图层_1" xmlns="http://www.w3.org/2000/svg" xmlns:xlink="http://www.w3.org/1999/xlink" x="0px" y="0px"
	 viewBox="0 0 595.3 841.9" style="enable-background:new 0 0 595.3 841.9;" xml:space="preserve">
<style type="text/css">
	.st0{fill:#E59189;}
	.st1{fill:#FFFFFF;}
	.st2{fill:url(#SVGID_1_);}
	.st3{fill:url(#SVGID_2_);}
	.st4{fill:url(#SVGID_3_);}
	.st5{fill:url(#SVGID_4_);}
	.st6{fill:url(#SVGID_5_);}
	.st7{fill:url(#SVGID_6_);}
	.st8{fill:url(#SVGID_7_);}
	.st9{fill:url(#SVGID_8_);}
	.st10{fill:url(#SVGID_9_);}
	.st11{fill:url(#SVGID_10_);}
	.st12{fill:url(#SVGID_11_);}
</style>
<path class="st0" d="M338.7,480.8H253c-4.9,0-8.8-4-8.8-8.8V370.6c0-4.9,4-8.8,8.8-8.8h85.7c4.9,0,8.8,4,8.8,8.8V472
	C347.5,476.8,343.6,480.8,338.7,480.8z"/>
<path class="st1" d="M328.7,469.5h-66.3c-3.9,0-7.1-3.2-7.1-7.1v-84.3c0-3.9,3.2-7.1,7.1-7.1h66.3c3.9,0,7.1,3.2,7.1,7.1v84.3
	C335.8,466.4,332.6,469.5,328.7,469.5z"/>
<path class="st0" d="M305.9,421.2c-1.8-5.1-4.4-8.2-6.4-9.9c-1.5-1.3-3.4-1.5-4.2-1.5H295c-0.8,0-2.7,0.3-4.2,1.5
	c-1.9,1.7-4.6,4.8-6.4,9.9c-1.8,5.1-4.6,5.3-5.6,8.4c-1,3.1-4,14.5,14,14.4c0.8,0,1.6,0.1,2.3,0.1c0.8,0,1.5-0.1,2.3-0.1
	c18,0.1,15-11.3,14-14.4C310.5,426.5,307.8,426.4,305.9,421.2z"/>
<path class="st0" d="M289.7,406.3c1.8-1.7,1.9-4,2-6.4c0.2-3.4,0.4-7.7-2.8-10.1c-2.5-1.9-6.2-2-9-0.4c-3.9,2.2-4.2,6.9-4.3,8.9
	c-0.1,1.7-0.3,5.4,2.3,7.8c1.4,1.4,3.4,2.1,5.8,2.1C284.8,408.2,287.7,408.3,289.7,406.3z"/>
<path class="st0" d="M274.8,410.7c-0.2-0.2-3.4-2.2-6.7-0.8c-4,1.7-4.2,6.8-4.2,7.8c0,1-0.1,4.1,2.2,6.1c1.8,1.6,4.1,1.7,4.8,1.7
	c0.7,0,3.3,0.1,5.3-1.9c1.9-1.8,2-4.2,2-5.3C278.2,417.6,278.4,413.1,274.8,410.7z"/>
<path class="st0" d="M310.8,392.8c-2-1.6-5.3-2.5-8-1.1c-4,2-3.9,7.4-3.8,8.7c0,1.4,0.1,4.2,2.2,6.1c1.8,1.6,4.1,1.7,4.8,1.7
	c0.9,0,3.3-0.1,5.3-1.9c2-1.7,2.4-4,2.5-4.9C313.8,400.7,314.5,395.7,310.8,392.8z"/>
<path class="st0" d="M324.2,410.7c-2-1.6-5.3-2.5-8-1.1c-4,2-3.9,7.4-3.8,8.7c0,1.4,0.1,4.2,2.2,6.1c1.8,1.6,4.1,1.7,4.8,1.7
	c0.9,0,3.3-0.1,5.3-1.9c2-1.7,2.4-4,2.5-4.9C327.2,418.6,327.9,413.6,324.2,410.7z"/>
<path class="st0" d="M317,459.5h-43.1c-1.6,0-2.8-1.3-2.8-2.8v-0.5c0-1.6,1.3-2.8,2.8-2.8H317c1.6,0,2.8,1.3,2.8,2.8v0.5
	C319.8,458.2,318.5,459.5,317,459.5z"/>
<linearGradient id="SVGID_1_" gradientUnits="userSpaceOnUse" x1="244.185" y1="403.5301" x2="295.8456" y2="403.5301">
	<stop  offset="0" style="stop-color:#B94950"/>
	<stop  offset="1" style="stop-color:#E59189"/>
</linearGradient>
<path class="st2" d="M295.8,361.8c-5.2-0.1-12.3,0-20.8,0.8c-13.8,1.4-20.7,2.1-23.7,6c-5,6.3,2.4,12.7,1.4,32.3
	c-0.2,4.6,1.7,12.6-4.3,25.1c-2.8,5.8-4.2,19.3-4.2,19.3s3.6-16.4,7.1-21.8c3.5-5.4,4-24,4-24v-21.4c0,0-0.4-6.2,5.1-7.1
	c7.5-1.2,18.7-4.9,21.2-5.3C285,365.2,290,364,295.8,361.8z"/>
<linearGradient id="SVGID_2_" gradientUnits="userSpaceOnUse" x1="244.185" y1="402.1335" x2="248.6954" y2="402.1335">
	<stop  offset="0" style="stop-color:#B94950"/>
	<stop  offset="1" style="stop-color:#E59189"/>
</linearGradient>
<path class="st3" d="M244.2,375.7c0,0,3.2,13.2,4.3,21s-4.3,31.9-4.3,31.9"/>
<linearGradient id="SVGID_3_" gradientUnits="userSpaceOnUse" x1="298.8236" y1="423.8369" x2="347.45" y2="423.8369">
	<stop  offset="0" style="stop-color:#B94950"/>
	<stop  offset="1" style="stop-color:#E59189"/>
</linearGradient>
<path class="st4" d="M331.4,371.1c2,0.6,5.1,2,7.6,4.9c3.2,3.6,3.8,8,4,10.6c1.4,15.7-5,33.4-4,50.1c1.2,19.5,11.7,24.7,7.3,32.2
	c-7.9,13.5-47.6,5.9-47.6,3.7c0-0.8,5.8-1.9,32.8-3c0.9-0.5,2.3-1.3,3.6-2.6c4-4,4.7-9.5,4.8-13.6c0.4-10.3-2-14.8-2.8-23.3
	c-1.3-12.6,2.1-21.9,3.4-43.3c0.1-1.8,0.3-5.4-1.7-9.1C336.8,374,333.5,372.1,331.4,371.1z"/>
<linearGradient id="SVGID_4_" gradientUnits="userSpaceOnUse" x1="281.4795" y1="372.1952" x2="347.5063" y2="372.1952">
	<stop  offset="0" style="stop-color:#B94950"/>
	<stop  offset="1" style="stop-color:#E59189"/>
</linearGradient>
<path class="st5" d="M281.5,371.1c0,0,25.7-2.3,30.9-4.6s21.4-4.7,21.4-4.7s7.4-0.8,9.8,1.5c2.4,2.3,4,3.6,4,7.4s-1.6,8.6-1.9,11.5
	c-0.4,2.9,1.1-3.5,0.1-5.8c-1-2.3-9.1-7-14.6-7.1C325.7,369,299,371.8,281.5,371.1z"/>
<linearGradient id="SVGID_5_" gradientUnits="userSpaceOnUse" x1="244.185" y1="464.7688" x2="321.3053" y2="464.7688">
	<stop  offset="0" style="stop-color:#B94950"/>
	<stop  offset="1" style="stop-color:#E59189"/>
</linearGradient>
<path class="st6" d="M244.2,448.8c0,0,0,22,12,24.5c12,2.5,34.4,5.8,46.6,6.7c12.2,0.8,18.5,0.8,18.5,0.8H253c0,0-7.8,0.2-8.8-8.3"
	/>
<linearGradient id="SVGID_6_" gradientUnits="userSpaceOnUse" x1="272.1636" y1="456.2383" x2="319.794" y2="456.2383">
	<stop  offset="0" style="stop-color:#B94950"/>
	<stop  offset="1" style="stop-color:#E59189"/>
</linearGradient>
<path class="st7" d="M272.3,453.8c-0.1,0.4-0.3,1.1,0,1.8c0.7,1.7,3.4,2.1,4.7,2.3c6.8,0.9,12-3,20-3c6.1,0,7.6-0.2,14.9,1.6
	c4.2,1,8.3-0.9,7.4-1.8s-0.9-0.9-0.9-0.9s1.5,1,1.4,2.4c-0.2,1.4-2.4,2.8-4.2,2.5c-1.9-0.3-13.8-2.8-21.4-2.2
	c-4.7,0.3-8.5-0.4-17.2-1.6c-0.7-0.1-1.2-0.2-1.6-0.2"/>
<linearGradient id="SVGID_7_" gradientUnits="userSpaceOnUse" x1="264.1898" y1="417.1025" x2="278.0308" y2="417.1025">
	<stop  offset="0" style="stop-color:#B94950"/>
	<stop  offset="1" style="stop-color:#E59189"/>
</linearGradient>
<path class="st8" d="M266.8,410.6c0,0-1.1,9.5,4.2,9.4c5.3-0.2,7-3.7,7-3.7s-0.1,3.1-1.3,4.2c-1.2,1.1-5.9,5.3-10.6,1.5
	C261.4,418.1,266.8,410.6,266.8,410.6z"/>
<linearGradient id="SVGID_8_" gradientUnits="userSpaceOnUse" x1="276.5002" y1="397.8254" x2="291.5982" y2="397.8254">
	<stop  offset="0" style="stop-color:#B94950"/>
	<stop  offset="1" style="stop-color:#E59189"/>
</linearGradient>
<path class="st9" d="M281.5,388.8c-0.9,0.7-2.6,2.3-3.3,4.9c-0.5,2.1-0.6,5.7,1.5,7.3c0.5,0.4,0.9,0.6,1.5,0.7
	c2.6,0.6,6.7,1.3,8.6-1.8s1.7-5.5,1.7-5.5c0.1,1.1,0.1,2.8-0.1,4.8c-0.3,2.7-0.4,4.1-1.1,5.1c-1.8,2.6-7.4,3.6-10.9,1.1
	c-3.8-2.8-3.4-8.4-2-11.7C278.6,391,280.5,389.5,281.5,388.8z"/>
<linearGradient id="SVGID_9_" gradientUnits="userSpaceOnUse" x1="301.3332" y1="401.814" x2="312.9596" y2="401.814">
	<stop  offset="0" style="stop-color:#B94950"/>
	<stop  offset="1" style="stop-color:#E59189"/>
</linearGradient>
<path class="st10" d="M312.7,396.4c0,0,0.2,3.1-1.6,5.1c-1.8,2-8.4,0.1-9.2,1.1c-0.8,1-1.4,5.1,3.3,4.8c4.6-0.3,6.2-2,6.9-3.7
	C312.7,401.8,313.3,398.5,312.7,396.4z"/>
<linearGradient id="SVGID_10_" gradientUnits="userSpaceOnUse" x1="312.8311" y1="420.1263" x2="324.5481" y2="420.1263">
	<stop  offset="0" style="stop-color:#B94950"/>
	<stop  offset="1" style="stop-color:#E59189"/>
</linearGradient>
<path class="st11" d="M313,415.4c0,0,0,0.1,0,0.2c0.2,1,1.4,5.2,3.8,6.1c2.8,1,5.3,1.8,7.1,0.8c1.8-1-1.2,1.9-3.4,2.2
	c-2.2,0.2-4.9-0.1-6.3-2c-0.5-0.6-0.7-1.2-0.9-2C312.7,418.5,312.8,416.6,313,415.4z"/>
<linearGradient id="SVGID_11_" gradientUnits="userSpaceOnUse" x1="281.6519" y1="434.6889" x2="296.6284" y2="434.6889">
	<stop  offset="0" style="stop-color:#B94950"/>
	<stop  offset="1" style="stop-color:#E59189"/>
</linearGradient>
<path class="st12" d="M285,425.5c0,0-1.8,3.7-1.4,5.9c0.4,2.2,3.6,9,7,10.1c3.4,1.2,6.1,2.4,6.1,2.4s-10.5,0.1-13.1-3.3
	C280.9,437.1,280.8,431.8,285,425.5z"/>
</svg>
