<?xml version="1.0" encoding="utf-8"?>
<!-- Generator: Adobe Illustrator 23.0.4, SVG Export Plug-In . SVG Version: 6.00 Build 0)  -->
<svg version="1.1" id="图层_1" xmlns="http://www.w3.org/2000/svg" xmlns:xlink="http://www.w3.org/1999/xlink" x="0px" y="0px"
	 viewBox="0 0 103.4 119.1" style="enable-background:new 0 0 103.4 119.1;" xml:space="preserve">
<style type="text/css">
	.st0{fill:#E59189;}
	.st1{fill:#FFFFFF;}
	.st2{fill:url(#SVGID_1_);}
	.st3{fill:url(#SVGID_2_);}
	.st4{fill:url(#SVGID_3_);}
	.st5{fill:url(#SVGID_4_);}
	.st6{fill:url(#SVGID_5_);}
	.st7{fill:url(#SVGID_6_);}
	.st8{fill:url(#SVGID_7_);}
	.st9{fill:url(#SVGID_8_);}
	.st10{fill:url(#SVGID_9_);}
	.st11{fill:url(#SVGID_10_);}
	.st12{fill:url(#SVGID_11_);}
</style>
<path class="st0" d="M94.5,119.1H8.8c-4.9,0-8.8-4-8.8-8.8V8.9C0,4,4,0.1,8.8,0.1h85.7c4.9,0,8.8,4,8.8,8.8v101.4
	C103.3,115.1,99.4,119.1,94.5,119.1z"/>
<path class="st1" d="M84.5,107.8H18.2c-3.9,0-7.1-3.2-7.1-7.1V16.4c0-3.9,3.2-7.1,7.1-7.1h66.3c3.9,0,7.1,3.2,7.1,7.1v84.3
	C91.6,104.7,88.4,107.8,84.5,107.8z"/>
<path class="st0" d="M61.7,59.5c-1.8-5.1-4.4-8.2-6.4-9.9c-1.5-1.3-3.4-1.5-4.2-1.5h-0.3c-0.8,0-2.7,0.3-4.2,1.5
	c-1.9,1.7-4.6,4.8-6.4,9.9s-4.6,5.3-5.6,8.4s-4,14.5,14,14.4c0.8,0,1.6,0.1,2.3,0.1c0.8,0,1.5-0.1,2.3-0.1c18,0.1,15-11.3,14-14.4
	C66.3,64.8,63.6,64.7,61.7,59.5z"/>
<path class="st0" d="M45.5,44.6c1.8-1.7,1.9-4,2-6.4c0.2-3.4,0.4-7.7-2.8-10.1c-2.5-1.9-6.2-2-9-0.4c-3.9,2.2-4.2,6.9-4.3,8.9
	c-0.1,1.7-0.3,5.4,2.3,7.8c1.4,1.4,3.4,2.1,5.8,2.1C40.6,46.5,43.5,46.6,45.5,44.6z"/>
<path class="st0" d="M30.6,49c-0.2-0.2-3.4-2.2-6.7-0.8c-4,1.7-4.2,6.8-4.2,7.8s-0.1,4.1,2.2,6.1c1.8,1.6,4.1,1.7,4.8,1.7
	c0.7,0,3.3,0.1,5.3-1.9c1.9-1.8,2-4.2,2-5.3C34,55.9,34.2,51.4,30.6,49z"/>
<path class="st0" d="M66.6,31.1c-2-1.6-5.3-2.5-8-1.1c-4,2-3.9,7.4-3.8,8.7c0,1.4,0.1,4.2,2.2,6.1c1.8,1.6,4.1,1.7,4.8,1.7
	c0.9,0,3.3-0.1,5.3-1.9c2-1.7,2.4-4,2.5-4.9C69.6,39,70.3,34,66.6,31.1z"/>
<path class="st0" d="M80,49c-2-1.6-5.3-2.5-8-1.1c-4,2-3.9,7.4-3.8,8.7c0,1.4,0.1,4.2,2.2,6.1c1.8,1.6,4.1,1.7,4.8,1.7
	c0.9,0,3.3-0.1,5.3-1.9c2-1.7,2.4-4,2.5-4.9C83,56.9,83.7,51.9,80,49z"/>
<path class="st0" d="M72.8,97.8H29.7c-1.6,0-2.8-1.3-2.8-2.8v-0.5c0-1.6,1.3-2.8,2.8-2.8h43.1c1.6,0,2.8,1.3,2.8,2.8V95
	C75.6,96.5,74.3,97.8,72.8,97.8z"/>
<linearGradient id="SVGID_1_" gradientUnits="userSpaceOnUse" x1="0" y1="76.6907" x2="51.6606" y2="76.6907" gradientTransform="matrix(1 0 0 -1 0 118.5593)">
	<stop  offset="0" style="stop-color:#B94950"/>
	<stop  offset="1" style="stop-color:#E59189"/>
</linearGradient>
<path class="st2" d="M51.6,0.1c-5.2-0.1-12.3,0-20.8,0.8C17,2.3,10.1,3,7.1,6.9c-5,6.3,2.4,12.7,1.4,32.3
	c-0.2,4.6,1.7,12.6-4.3,25.1C1.4,70.1,0,83.6,0,83.6s3.6-16.4,7.1-21.8s4-24,4-24V16.4c0,0-0.4-6.2,5.1-7.1
	C23.7,8.1,34.9,4.4,37.4,4C40.8,3.5,45.8,2.3,51.6,0.1z"/>
<linearGradient id="SVGID_2_" gradientUnits="userSpaceOnUse" x1="-1.499939e-02" y1="78.0747" x2="4.4954" y2="78.0747" gradientTransform="matrix(1 0 0 -1 0 118.5593)">
	<stop  offset="0" style="stop-color:#B94950"/>
	<stop  offset="1" style="stop-color:#E59189"/>
</linearGradient>
<path class="st3" d="M0,14c0,0,3.2,13.2,4.3,21S0,66.9,0,66.9"/>
<linearGradient id="SVGID_3_" gradientUnits="userSpaceOnUse" x1="54.6236" y1="56.3133" x2="103.2948" y2="56.3133" gradientTransform="matrix(1 0 0 -1 0 118.5593)">
	<stop  offset="0" style="stop-color:#B94950"/>
	<stop  offset="1" style="stop-color:#E59189"/>
</linearGradient>
<path class="st4" d="M87.2,9.4c2,0.6,5.1,2,7.6,4.9c3.2,3.6,3.8,8,4,10.6c1.4,15.7-5,33.4-4,50.1c1.2,19.5,11.7,24.7,7.3,32.2
	c-7.9,13.5-47.6,5.9-47.6,3.7c0-0.8,5.8-1.9,32.8-3c0.9-0.5,2.3-1.3,3.6-2.6c4-4,4.7-9.5,4.8-13.6c0.4-10.3-2-14.8-2.8-23.3
	c-1.3-12.6,2.1-21.9,3.4-43.3c0.1-1.8,0.3-5.4-1.7-9.1C92.6,12.3,89.3,10.4,87.2,9.4z"/>
<linearGradient id="SVGID_4_" gradientUnits="userSpaceOnUse" x1="37.05" y1="108.072" x2="103.0768" y2="108.072" gradientTransform="matrix(1 0 0 -1 0 118.5593)">
	<stop  offset="0" style="stop-color:#B94950"/>
	<stop  offset="1" style="stop-color:#E59189"/>
</linearGradient>
<path class="st5" d="M37.1,9.3c0,0,25.7-2.3,30.9-4.6S89.4,0,89.4,0s7.4-0.8,9.8,1.5s4,3.6,4,7.4s-1.6,8.6-1.9,11.5
	c-0.4,2.9,1.1-3.5,0.1-5.8s-9.1-7-14.6-7.1C81.3,7.2,54.6,10,37.1,9.3z"/>
<linearGradient id="SVGID_5_" gradientUnits="userSpaceOnUse" x1="0" y1="15.4245" x2="77.1" y2="15.4245" gradientTransform="matrix(1 0 0 -1 0 118.5593)">
	<stop  offset="0" style="stop-color:#B94950"/>
	<stop  offset="1" style="stop-color:#E59189"/>
</linearGradient>
<path class="st6" d="M0,87.1c0,0,0,22,12,24.5c12,2.5,34.4,5.8,46.6,6.7c12.2,0.8,18.5,0.8,18.5,0.8H8.8c0,0-7.8,0.2-8.8-8.3"/>
<linearGradient id="SVGID_6_" gradientUnits="userSpaceOnUse" x1="27.9415" y1="23.9542" x2="75.6048" y2="23.9542" gradientTransform="matrix(1 0 0 -1 0 118.5593)">
	<stop  offset="0" style="stop-color:#B94950"/>
	<stop  offset="1" style="stop-color:#E59189"/>
</linearGradient>
<path class="st7" d="M28.1,92.1c-0.1,0.4-0.3,1.1,0,1.8c0.7,1.7,3.4,2.1,4.7,2.3c6.8,0.9,12-3,20-3c6.1,0,7.6-0.2,14.9,1.6
	c4.2,1,8.3-0.9,7.4-1.8s-0.9-0.9-0.9-0.9s1.5,1,1.4,2.4c-0.2,1.4-2.4,2.8-4.2,2.5c-1.9-0.3-13.8-2.8-21.4-2.2
	c-4.7,0.3-8.5-0.4-17.2-1.6c-0.7-0.1-1.2-0.2-1.6-0.2"/>
<linearGradient id="SVGID_7_" gradientUnits="userSpaceOnUse" x1="19.9783" y1="63.1448" x2="33.8193" y2="63.1448" gradientTransform="matrix(1 0 0 -1 0 118.5593)">
	<stop  offset="0" style="stop-color:#B94950"/>
	<stop  offset="1" style="stop-color:#E59189"/>
</linearGradient>
<path class="st8" d="M22.6,48.9c0,0-1.1,9.5,4.2,9.4c5.3-0.2,7-3.7,7-3.7s-0.1,3.1-1.3,4.2c-1.2,1.1-5.9,5.3-10.6,1.5
	C17.2,56.4,22.6,48.9,22.6,48.9z"/>
<linearGradient id="SVGID_8_" gradientUnits="userSpaceOnUse" x1="32.3002" y1="82.4039" x2="47.3982" y2="82.4039" gradientTransform="matrix(1 0 0 -1 0 118.5593)">
	<stop  offset="0" style="stop-color:#B94950"/>
	<stop  offset="1" style="stop-color:#E59189"/>
</linearGradient>
<path class="st9" d="M37.3,27.1c-0.9,0.7-2.6,2.3-3.3,4.9c-0.5,2.1-0.6,5.7,1.5,7.3c0.5,0.4,0.9,0.6,1.5,0.7
	c2.6,0.6,6.7,1.3,8.6-1.8s1.7-5.5,1.7-5.5c0.1,1.1,0.1,2.8-0.1,4.8c-0.3,2.7-0.4,4.1-1.1,5.1c-1.8,2.6-7.4,3.6-10.9,1.1
	c-3.8-2.8-3.4-8.4-2-11.7C34.4,29.3,36.3,27.8,37.3,27.1z"/>
<linearGradient id="SVGID_9_" gradientUnits="userSpaceOnUse" x1="57.1332" y1="78.3168" x2="68.7596" y2="78.3168" gradientTransform="matrix(1 0 0 -1 0 118.5593)">
	<stop  offset="0" style="stop-color:#B94950"/>
	<stop  offset="1" style="stop-color:#E59189"/>
</linearGradient>
<path class="st10" d="M68.5,34.7c0,0,0.2,3.1-1.6,5.1c-1.8,2-8.4,0.1-9.2,1.1c-0.8,1-1.4,5.1,3.3,4.8c4.6-0.3,6.2-2,6.9-3.7
	C68.5,40.1,69.1,36.8,68.5,34.7z"/>
<linearGradient id="SVGID_10_" gradientUnits="userSpaceOnUse" x1="68.6311" y1="60.148" x2="80.3481" y2="60.148" gradientTransform="matrix(1 0 0 -1 0 118.5593)">
	<stop  offset="0" style="stop-color:#B94950"/>
	<stop  offset="1" style="stop-color:#E59189"/>
</linearGradient>
<path class="st11" d="M68.8,53.7c0,0,0,0.1,0,0.2c0.2,1,1.4,5.2,3.8,6.1c2.8,1,5.3,1.8,7.1,0.8c1.8-1-1.2,1.9-3.4,2.2
	c-2.2,0.2-4.9-0.1-6.3-2c-0.5-0.6-0.7-1.2-0.9-2C68.5,56.8,68.6,54.9,68.8,53.7z"/>
<linearGradient id="SVGID_11_" gradientUnits="userSpaceOnUse" x1="37.4519" y1="45.5245" x2="52.4284" y2="45.5245" gradientTransform="matrix(1 0 0 -1 0 118.5593)">
	<stop  offset="0" style="stop-color:#B94950"/>
	<stop  offset="1" style="stop-color:#E59189"/>
</linearGradient>
<path class="st12" d="M40.8,63.8c0,0-1.8,3.7-1.4,5.9c0.4,2.2,3.6,9,7,10.1c3.4,1.2,6.1,2.4,6.1,2.4S42,82.3,39.4,78.9
	C36.7,75.4,36.6,70.1,40.8,63.8z"/>
</svg>
