<svg xmlns="http://www.w3.org/2000/svg" xmlns:xlink="http://www.w3.org/1999/xlink" viewBox="0 0 617.57 481.43"><defs><style>.cls-1,.cls-6,.cls-7,.cls-8,.cls-9{fill:none;}.cls-2{fill:url(#未命名的渐变_3);}.cls-3{fill:url(#未命名的渐变_3-2);}.cls-4{fill:url(#未命名的渐变_3-3);}.cls-5{fill:url(#未命名的渐变_3-4);}.cls-6,.cls-7,.cls-8,.cls-9{stroke-miterlimit:10;}.cls-6{stroke-width:1.02px;stroke:url(#未命名的渐变_3-5);}.cls-7{stroke:url(#未命名的渐变_3-6);}.cls-8{stroke-width:1.03px;stroke:url(#未命名的渐变_3-7);}.cls-9{stroke-width:1.08px;stroke:url(#未命名的渐变_3-8);}</style><linearGradient id="未命名的渐变_3" x1="125.4" y1="82.42" x2="197.25" y2="82.42" gradientUnits="userSpaceOnUse"><stop offset="0" stop-color="#f4cc86"/><stop offset="1" stop-color="#e59189"/></linearGradient><linearGradient id="未命名的渐变_3-2" x1="477.34" y1="397.66" x2="509.25" y2="397.66" xlink:href="#未命名的渐变_3"/><linearGradient id="未命名的渐变_3-3" x1="532.49" y1="351.7" x2="564.4" y2="351.7" xlink:href="#未命名的渐变_3"/><linearGradient id="未命名的渐变_3-4" x1="43.8" y1="259.98" x2="75.71" y2="259.98" xlink:href="#未命名的渐变_3"/><linearGradient id="未命名的渐变_3-5" x1="143.76" y1="263.72" x2="462.17" y2="263.72" gradientTransform="matrix(1, 0, 0, 1.04, -0.19, -18.98)" xlink:href="#未命名的渐变_3"/><linearGradient id="未命名的渐变_3-6" x1="166.35" y1="264.95" x2="484.73" y2="264.95" gradientTransform="matrix(1, -0.05, 0.05, 1, -13.73, 16.18)" xlink:href="#未命名的渐变_3"/><linearGradient id="未命名的渐变_3-7" x1="151.26" y1="251.42" x2="469.67" y2="251.42" gradientTransform="matrix(0.97, 0, 0, 1.09, 14.83, -21.55)" xlink:href="#未命名的渐变_3"/><linearGradient id="未命名的渐变_3-8" x1="134.96" y1="259.2" x2="484.98" y2="259.2" xlink:href="#未命名的渐变_3"/></defs><title>签到</title><g id="图层_4" data-name="图层 4"><circle class="cls-1" cx="308.21" cy="271.72" r="173.71"/><circle class="cls-2" cx="161.32" cy="82.42" r="35.92"/><circle class="cls-3" cx="493.29" cy="397.66" r="15.95"/><circle class="cls-4" cx="548.44" cy="351.7" r="15.95"/><circle class="cls-5" cx="59.75" cy="259.98" r="15.95"/><ellipse class="cls-6" cx="302.78" cy="256.14" rx="158.69" ry="165.55" transform="translate(-13.5 16.88) rotate(-3.12)"/><circle class="cls-7" cx="325.76" cy="263.01" r="158.69"/><ellipse class="cls-8" cx="315.27" cy="253.04" rx="153.57" ry="173.31" transform="translate(-13.32 17.55) rotate(-3.12)"/><ellipse class="cls-9" cx="309.97" cy="259.2" rx="174.47" ry="167.58"/></g></svg>