<svg id="图层_1" data-name="图层 1" xmlns="http://www.w3.org/2000/svg" viewBox="0 0 24.1 22.08"><defs><style>.cls-1,.cls-2{fill:none;}.cls-1{stroke:#9fa0a0;stroke-miterlimit:10;stroke-width:0.8px;}.cls-2{stroke:#898989;stroke-linejoin:round;stroke-width:1.23px;}</style></defs><title>评论</title><path class="cls-1" d="M33.05,27.43A5.54,5.54,0,0,0,31.46,25a1.79,1.79,0,0,0-1-.37h-.09a1.79,1.79,0,0,0-1,.37,5.54,5.54,0,0,0-1.59,2.4c-.46,1.25-1.14,1.28-1.4,2s-1,3.51,3.5,3.48l.58,0,.57,0c4.49,0,3.75-2.73,3.5-3.48S33.51,28.68,33.05,27.43Z" transform="translate(-14.66 -14.94)"/><path class="cls-1" d="M29.41,23.17a2.1,2.1,0,0,0,.5-1.54,2.62,2.62,0,0,0-.7-2.45,2.15,2.15,0,0,0-2.24-.1,2.45,2.45,0,0,0-1.07,2.14,2.29,2.29,0,0,0,.56,1.9,2.09,2.09,0,0,0,1.45.5A2.14,2.14,0,0,0,29.41,23.17Z" transform="translate(-14.66 -14.94)"/><path class="cls-1" d="M25.29,24.49a1.94,1.94,0,0,0-1.67-.21,2.09,2.09,0,0,0-1.06,1.9,1.88,1.88,0,0,0,.55,1.48,1.94,1.94,0,0,0,1.19.41,1.86,1.86,0,0,0,1.31-.46,1.76,1.76,0,0,0,.51-1.27A2.08,2.08,0,0,0,25.29,24.49Z" transform="translate(-14.66 -14.94)"/><path class="cls-1" d="M34.26,20.15a2,2,0,0,0-2-.28c-1,.48-1,1.79-1,2.11a1.66,1.66,0,0,0,1.74,1.89,2,2,0,0,0,1.31-.45A2,2,0,0,0,35,22.23,2.21,2.21,0,0,0,34.26,20.15Z" transform="translate(-14.66 -14.94)"/><path class="cls-1" d="M37.6,24.48a2,2,0,0,0-2-.28c-1,.48-1,1.79-1,2.1a1.68,1.68,0,0,0,1.73,1.9,2,2,0,0,0,1.31-.46,1.93,1.93,0,0,0,.63-1.19A2.18,2.18,0,0,0,37.6,24.48Z" transform="translate(-14.66 -14.94)"/><path class="cls-2" d="M33.41,35.27a1.16,1.16,0,0,1-1.18,1.14H16.45a1.15,1.15,0,0,1-1.17-1.14V16.7a1.15,1.15,0,0,1,1.17-1.14H32.23a1.18,1.18,0,0,1,.46.09" transform="translate(-14.66 -14.94)"/></svg>