<svg id="图层_1" data-name="图层 1" xmlns="http://www.w3.org/2000/svg" viewBox="0 0 20.72 18.62"><defs><style>.cls-1{fill:none;stroke:#c56d5d;stroke-linecap:round;stroke-linejoin:round;}</style></defs><title>待评价</title><g id="组_350" data-name="组 350"><path id="路径_280" data-name="路径 280" class="cls-1" d="M40.22,23.82v8.71a2.32,2.32,0,0,1-2.32,2.32H33.39a12.27,12.27,0,0,1-7.17,4.27,25.41,25.41,0,0,0,1.72-4.27H22.82a2.32,2.32,0,0,1-2.32-2.32h0V23.82a2.32,2.32,0,0,1,2.31-2.32h15.1A2.32,2.32,0,0,1,40.22,23.82Z" transform="translate(-20 -21)"/><circle id="椭圆_353" data-name="椭圆 353" class="cls-1" cx="5.17" cy="7.17" r="1.6"/><circle id="椭圆_354" data-name="椭圆 354" class="cls-1" cx="10.4" cy="7.17" r="1.6"/><circle id="椭圆_355" data-name="椭圆 355" class="cls-1" cx="15.54" cy="7.17" r="1.6"/></g></svg>