<svg id="图层_1" data-name="图层 1" xmlns="http://www.w3.org/2000/svg" viewBox="0 0 28.15 20.07"><defs><style>.cls-1{fill:none;stroke:#c56d5d;stroke-linecap:round;stroke-linejoin:round;}</style></defs><title>寄送中_小</title><g id="组_348" data-name="组 348"><path id="路径_274" data-name="路径 274" class="cls-1" d="M30.81,20.5l0,14.43-4.19,0a3.88,3.88,0,0,0-5.38-1.1,4,4,0,0,0-1.1,1.1H16.5V20.54Z" transform="translate(-16 -20)"/><path id="路径_275" data-name="路径 275" class="cls-1" d="M43.65,34.88H41a3.9,3.9,0,0,0-6.4,0h-2V23.18l8.2,2.44Z" transform="translate(-16 -20)"/><rect id="矩形_349" data-name="矩形 349" class="cls-1" x="19.25" y="7.48" width="2.87" height="3.65"/><path id="路径_276" data-name="路径 276" class="cls-1" d="M27,36.39a3.67,3.67,0,0,1-7.27,0A2.72,2.72,0,0,1,20.1,35a3.88,3.88,0,0,1,6.47,0A2.82,2.82,0,0,1,27,36.39Z" transform="translate(-16 -20)"/><path id="路径_277" data-name="路径 277" class="cls-1" d="M41.48,36.39a3.67,3.67,0,0,1-7.27,0,2.85,2.85,0,0,1,.43-1.51,3.9,3.9,0,0,1,5.43-1,3.73,3.73,0,0,1,1,1A2.77,2.77,0,0,1,41.48,36.39Z" transform="translate(-16 -20)"/></g></svg>