<svg id="图层_1" data-name="图层 1" xmlns="http://www.w3.org/2000/svg" viewBox="0 0 57.17 41.04"><defs><style>.cls-1{fill:none;stroke:#c56d5d;stroke-linecap:round;stroke-linejoin:round;stroke-width:3px;}</style></defs><title>寄送中</title><g id="组_348" data-name="组 348"><path id="路径_274" data-name="路径 274" class="cls-1" d="M32.06,11.5,32,40.28l-8.35,0a7.76,7.76,0,0,0-12.93,0H3.5V11.57Z" transform="translate(-2 -10)"/><path id="路径_275" data-name="路径 275" class="cls-1" d="M57.67,40.18h-5.2a7.79,7.79,0,0,0-10.84-1.92,8,8,0,0,0-1.93,1.92H35.6V16.86L52,21.71Z" transform="translate(-2 -10)"/><rect id="矩形_349" data-name="矩形 349" class="cls-1" x="38.91" y="15.43" width="5.72" height="7.29"/><path id="路径_276" data-name="路径 276" class="cls-1" d="M24.39,43.2c0,3.5-3.25,6.34-7.26,6.34S9.88,46.7,9.88,43.2a5.5,5.5,0,0,1,.8-2.87,7.75,7.75,0,0,1,10.73-2.19,7.87,7.87,0,0,1,2.19,2.19A5.59,5.59,0,0,1,24.39,43.2Z" transform="translate(-2 -10)"/><path id="路径_277" data-name="路径 277" class="cls-1" d="M53.34,43.2c0,3.5-3.24,6.34-7.25,6.34s-7.26-2.84-7.26-6.34a5.67,5.67,0,0,1,.87-3,7.78,7.78,0,0,1,12.76,0A5.6,5.6,0,0,1,53.34,43.2Z" transform="translate(-2 -10)"/></g></svg>