<svg id="图层_1" data-name="图层 1" xmlns="http://www.w3.org/2000/svg" viewBox="0 0 30.33 35.06"><defs><style>.cls-1{fill:#edd2c6;}.cls-2{fill:#fdebdf;}.cls-3{fill:#2f2926;}.cls-4{fill:none;stroke:#2f2926;stroke-linecap:round;stroke-miterlimit:10;stroke-width:0.5px;}</style></defs><title>宠物入口</title><g id="组_158" data-name="组 158"><path id="路径_97" data-name="路径 97" class="cls-1" d="M37.4,39.69a10.71,10.71,0,0,1-1.75,1.81,16.1,16.1,0,0,1-13.81,2.4c-6.11-1.63-10-6.15-11.13-9.91a9.81,9.81,0,0,1-.4-2.08c-.75-9,8.5-23.51,19-22.39a9.54,9.54,0,0,1,2.35.54C41.38,13.7,43,32.3,37.4,39.69Z" transform="translate(-10.27 -9.46)"/><path id="路径_98" data-name="路径 98" class="cls-2" d="M37.13,33.38a14.51,14.51,0,0,1-3.58,4.92A14.09,14.09,0,0,1,26,41.58c-5.49.61-11.35-2.14-13.86-6.66a12.39,12.39,0,0,1-1.45-4.59,15,15,0,0,1,.82-5.94,13.63,13.63,0,0,1,1.08-2.76,15.15,15.15,0,0,1,.8-1.34c1.17-1.82,1.75-2.73,2.1-3.22A20.43,20.43,0,0,1,20.64,12c1.14-.72,5.54-3.5,10.29-2a9.4,9.4,0,0,1,2.32,1.07c4.27,2.73,5.15,8.09,5.53,10.42A20.2,20.2,0,0,1,37.13,33.38Z" transform="translate(-10.27 -9.46)"/><circle id="椭圆_266" data-name="椭圆 266" class="cls-3" cx="9.55" cy="18.87" r="0.64"/><circle id="椭圆_267" data-name="椭圆 267" class="cls-3" cx="15.31" cy="20.41" r="0.64"/><path id="路径_99" data-name="路径 99" class="cls-4" d="M20.77,30.52a1,1,0,0,0-.13.3,1.56,1.56,0,0,0,3,.8,1,1,0,0,0,0-.3" transform="translate(-10.27 -9.46)"/><path id="路径_100" data-name="路径 100" class="cls-2" d="M19.77,0" transform="translate(-10.27 -9.46)"/></g></svg>