<svg id="图层_1" data-name="图层 1" xmlns="http://www.w3.org/2000/svg" viewBox="0 0 208.23 156.25"><defs><style>.cls-1{fill:none;stroke:#cecece;stroke-linecap:round;stroke-linejoin:round;stroke-width:12.43px;}</style></defs><title>缺省</title><line class="cls-1" x1="104.57" y1="51.57" x2="188.48" y2="56.32"/><line class="cls-1" x1="41.19" y1="90.56" x2="140.68" y2="97.69"/><line class="cls-1" x1="41.19" y1="90.56" x2="104.57" y2="51.57"/><line class="cls-1" x1="140.68" y1="97.69" x2="140.68" y2="150.04"/><line class="cls-1" x1="140.68" y1="150.04" x2="189.67" y2="104.76"/><line class="cls-1" x1="189.66" y1="104.75" x2="189.14" y2="83.44"/><line class="cls-1" x1="42.2" y1="141.74" x2="41.19" y2="90.56"/><line class="cls-1" x1="42.2" y1="141.74" x2="140.68" y2="150.04"/><line class="cls-1" x1="104.57" y1="51.57" x2="104.6" y2="95.11"/><polygon class="cls-1" points="202.01 71.06 189.14 83.44 160.1 111.37 140.68 97.69 188.48 56.32 202.01 71.06"/><line class="cls-1" x1="41.19" y1="90.56" x2="28.65" y2="112.45"/><line class="cls-1" x1="128.83" y1="6.22" x2="128.83" y2="26.81"/><line class="cls-1" x1="60.65" y1="16.51" x2="72.88" y2="36.62"/><line class="cls-1" x1="6.22" y1="53.94" x2="23.87" y2="71.06"/></svg>