<svg id="图层_1" data-name="图层 1" xmlns="http://www.w3.org/2000/svg" viewBox="0 0 77 77"><defs><style>.cls-1{fill:#fff;}.cls-2,.cls-4{fill:none;stroke:#d47772;}.cls-2{stroke-width:3px;}.cls-3{fill:#d47772;}.cls-4{stroke-width:2.5px;}</style></defs><title>成功发布</title><g id="椭圆_278" data-name="椭圆 278"><circle class="cls-1" cx="38.5" cy="38.5" r="38.5"/><circle class="cls-2" cx="38.5" cy="38.5" r="37"/></g><g id="组_163" data-name="组 163"><path id="路径_113" data-name="路径 113" class="cls-3" d="M37.83,37.43a13.63,13.63,0,0,0-3.77-5.84,4.15,4.15,0,0,0-2.46-.91h-.23a4.13,4.13,0,0,0-2.45.91,13.54,13.54,0,0,0-3.77,5.84c-1.08,3-2.69,3.12-3.29,4.94s-2.36,8.55,8.27,8.49l1.37.06,1.35-.06c10.63.06,8.88-6.67,8.27-8.49S38.9,40.47,37.83,37.43Z" transform="translate(8 8)"/><path id="路径_114" data-name="路径 114" class="cls-3" d="M28.26,28.63c1-1,1.12-2.38,1.19-3.74.1-2,.23-4.54-1.66-6a5,5,0,0,0-5.3-.26C20.19,20,20,22.74,20,23.89c-.06,1-.18,3.16,1.34,4.62a5.79,5.79,0,0,0,7,.12Z" transform="translate(8 8)"/><path id="路径_112" data-name="路径 112" class="cls-3" d="M19.46,31.24a4.46,4.46,0,0,0-4-.5c-2.34,1-2.5,4-2.5,4.61A4.62,4.62,0,0,0,14.31,39a4.27,4.27,0,0,0,2.8,1,4.33,4.33,0,0,0,3.11-1.1,4.43,4.43,0,0,0,1.2-3.11A5.17,5.17,0,0,0,19.46,31.24Z" transform="translate(8 8)"/><path id="路径_115" data-name="路径 115" class="cls-3" d="M40.68,20.67A4.58,4.58,0,0,0,36,20c-2.34,1.17-2.28,4.35-2.26,5.13A4.78,4.78,0,0,0,35,28.73a4.27,4.27,0,0,0,2.8,1,4.63,4.63,0,0,0,3.11-1.1,4.71,4.71,0,0,0,1.48-2.9C42.47,25.36,42.89,22.4,40.68,20.67Z" transform="translate(8 8)"/><path id="路径_116" data-name="路径 116" class="cls-3" d="M48.59,31.21a4.56,4.56,0,0,0-4.71-.67c-2.34,1.17-2.28,4.35-2.26,5.12a4.75,4.75,0,0,0,1.3,3.61,4.22,4.22,0,0,0,2.8,1,4.58,4.58,0,0,0,3.11-1.1,4.71,4.71,0,0,0,1.48-2.9C50.37,35.9,50.8,32.94,48.59,31.21Z" transform="translate(8 8)"/></g><path id="路径_133" data-name="路径 133" class="cls-4" d="M12,63.22s1.38-10.68.91-13.45S6,41.5,7.85,33.23s6.36-8.4,6.36-8.4S15.43,17,19.92,14.3a13.16,13.16,0,0,1,9.22-1.43s5.61-.92,9.07,0,3.8,1.49,6.07,4.48a19.48,19.48,0,0,1,3,7.48,12.41,12.41,0,0,1,4.76,4c2,2.86,2.48,8.77,1,12.4s-2.1,5.55-2.1,5.55l-.59,15.7" transform="translate(8 8)"/></svg>