<svg id="图层_1" data-name="图层 1" xmlns="http://www.w3.org/2000/svg" viewBox="0 0 77 77"><defs><style>.cls-1{fill:#fff;}.cls-2,.cls-4{fill:none;stroke:#7d7e7e;}.cls-2{stroke-width:3px;}.cls-3{fill:#7d7e7e;}.cls-4{stroke-width:2.5px;}</style></defs><title>保存至草稿</title><g id="椭圆_278" data-name="椭圆 278"><circle class="cls-1" cx="38.5" cy="38.5" r="38.5"/><circle class="cls-2" cx="38.5" cy="38.5" r="37"/></g><g id="组_163" data-name="组 163"><path id="路径_113" data-name="路径 113" class="cls-3" d="M34.52,35.16a13.67,13.67,0,0,0-3.77-5.85,4.15,4.15,0,0,0-2.46-.91h-.23a4.18,4.18,0,0,0-2.46.91,13.65,13.65,0,0,0-3.76,5.85c-1.08,3-2.69,3.11-3.3,4.93s-2.35,8.55,8.27,8.49l1.38.06,1.35-.06c10.62.06,8.88-6.66,8.27-8.49S35.59,38.19,34.52,35.16Z" transform="translate(11.31 10.28)"/><path id="路径_114" data-name="路径 114" class="cls-3" d="M25,26.36c1.05-1,1.12-2.39,1.19-3.75.1-2,.23-4.54-1.66-6a5,5,0,0,0-5.3-.26c-2.31,1.32-2.47,4.08-2.54,5.23s-.19,3.16,1.34,4.63a5.82,5.82,0,0,0,7,.12Z" transform="translate(11.31 10.28)"/><path id="路径_112" data-name="路径 112" class="cls-3" d="M16.15,29a4.43,4.43,0,0,0-3.95-.5c-2.34,1-2.5,4-2.5,4.6A4.6,4.6,0,0,0,11,36.68a4.22,4.22,0,0,0,2.8,1,4.29,4.29,0,0,0,3.11-1.1,4.42,4.42,0,0,0,1.2-3.11A5.16,5.16,0,0,0,16.15,29Z" transform="translate(11.31 10.28)"/><path id="路径_115" data-name="路径 115" class="cls-3" d="M37.36,18.39a4.54,4.54,0,0,0-4.7-.67c-2.34,1.17-2.28,4.35-2.26,5.12a4.71,4.71,0,0,0,1.3,3.61,4.22,4.22,0,0,0,2.8,1,4.58,4.58,0,0,0,3.11-1.1,4.71,4.71,0,0,0,1.48-2.9C39.15,23.08,39.58,20.12,37.36,18.39Z" transform="translate(11.31 10.28)"/><path id="路径_116" data-name="路径 116" class="cls-3" d="M45.27,28.93a4.58,4.58,0,0,0-4.7-.67c-2.34,1.17-2.28,4.35-2.26,5.13a4.7,4.7,0,0,0,1.3,3.6,4.17,4.17,0,0,0,2.8,1,4.58,4.58,0,0,0,3.11-1.1A4.69,4.69,0,0,0,47,34C47.06,33.63,47.49,30.66,45.27,28.93Z" transform="translate(11.31 10.28)"/></g><path id="路径_133" data-name="路径 133" class="cls-4" d="M8.69,61s1.37-10.69.91-13.46S2.67,39.22,4.54,31s6.36-8.4,6.36-8.4S12.12,14.68,16.61,12a13.2,13.2,0,0,1,9.21-1.43s5.62-.91,9.08,0,3.8,1.49,6.06,4.48a19.56,19.56,0,0,1,3,7.48,12.41,12.41,0,0,1,4.76,4c2,2.87,2.48,8.77,1,12.4s-2.1,5.56-2.1,5.56L47,60.22" transform="translate(11.31 10.28)"/></svg>