<?xml version="1.0" encoding="utf-8"?>
<!-- Generator: Adobe Illustrator 23.0.4, SVG Export Plug-In . SVG Version: 6.00 Build 0)  -->
<svg version="1.1" id="图层_1" xmlns="http://www.w3.org/2000/svg" xmlns:xlink="http://www.w3.org/1999/xlink" x="0px" y="0px"
	 viewBox="0 0 101.7 86.3" style="enable-background:new 0 0 101.7 86.3;" xml:space="preserve">
<style type="text/css">
	.st0{fill:#E59189;}
	.st1{fill:url(#SVGID_1_);}
	.st2{fill:url(#SVGID_2_);}
	.st3{fill:#E59189;stroke:#FFFFFF;stroke-width:3;stroke-miterlimit:10;}
	.st4{fill:url(#SVGID_3_);}
	.st5{fill:url(#SVGID_4_);}
	.st6{fill:url(#SVGID_5_);}
</style>
<g>
	<path class="st0" d="M34,24.4L19.5,42.2c-4.5,5.5-4.9,12.6-1,15.9l32,26.5c3.9,3.3,10.7,1.4,15.2-4l14.5-17.8
		c4.5-5.5,4.9-12.6,1-15.9l-32-26.5C45.3,17.1,38.4,18.9,34,24.4z"/>
	<polygon class="st0" points="25.5,7.4 0.1,38.6 17,52.5 42.3,21.3 	"/>
	<path class="st0" d="M47,17.6l-3.4,4.1l28.6,23.7l3.4-4.1c2.1-2.5,2-6,0-7.7L54.5,16.2C52.4,14.4,49.1,15.1,47,17.6z"/>
</g>
<linearGradient id="SVGID_1_" gradientUnits="userSpaceOnUse" x1="46.6243" y1="8.5198" x2="73.2" y2="8.5198" gradientTransform="matrix(1 0 0 -1 0 87.3185)">
	<stop  offset="0" style="stop-color:#B94950"/>
	<stop  offset="1" style="stop-color:#E59189"/>
</linearGradient>
<path class="st1" d="M53.3,74.9c0,0,1.2,3.4,5.1,3.2c3.9-0.2,14.8-6.8,14.8-6.8l-8.7,10.5c0,0-4.4,3.9-8.1,4.4s-6.4-1.8-9.2-4.3
	C44.3,79.3,53.3,74.9,53.3,74.9z"/>
<linearGradient id="SVGID_2_" gradientUnits="userSpaceOnUse" x1="0.1171" y1="48.4543" x2="16.9033" y2="48.4543" gradientTransform="matrix(1 0 0 -1 0 87.3185)">
	<stop  offset="0" style="stop-color:#B94950"/>
	<stop  offset="1" style="stop-color:#E59189"/>
</linearGradient>
<path class="st2" d="M9.8,26.6c1.4,1.3,5.2,5.2,6.6,11.6c1.3,6.2-0.4,11.1-1.2,12.9C10.1,46.9,5.1,42.7,0,38.6L9.8,26.6z"/>
<path class="st3" d="M99,33.6L73.6,2.4L57.3,15.8c-1-0.2-2-0.5-3.1-0.7c-0.8-0.2-1.6-0.3-2.4-0.5c-0.5-0.2-1.1-0.4-1.6-0.6
	c-2.1-2.5-5.6-3-7.9-1.2L19.1,32c-2.3,1.9-2.5,5.5-0.4,8l0.5,0.6c-1.9,2-3.7,3.9-5.6,5.9c-0.9,1.3-2.2,3.6-2.8,6.8
	c-0.9,4.9,0.6,8.8,1.3,10.4c5.5,5.5,10.9,11.1,16.4,16.6c1.3,0.9,4.6,2.9,9.2,2.9c3.1,0,5.5-0.8,6.9-1.5c11.3-9.1,22.7-18.1,34-27.2
	c2-1.7,3-4.1,3.2-6.9L99,33.6z"/>
<linearGradient id="SVGID_3_" gradientUnits="userSpaceOnUse" x1="13.8" y1="36.6043" x2="94.5" y2="36.6043" gradientTransform="matrix(1 0 0 -1 0 87.3185)">
	<stop  offset="0" style="stop-color:#B94950"/>
	<stop  offset="1" style="stop-color:#E59189"/>
</linearGradient>
<path class="st4" d="M87.4,21.8c-3,2.7-7.2,7-10.3,13.4c-2.7,5.7-2.8,9.5-3.8,12.8c-1.9,6.2-8.1,13.9-27.7,20.2
	c-2.6,1.1-7.8,2.9-14.3,2.4c-8.9-0.7-14.9-5.2-17.1-7l-0.4-0.2c5.3,5.4,10.6,10.8,15.9,16.2c1.1-0.8,3-2.2,5.4-3.8
	c22.2-15.1,30.5-12.2,38.4-23c4.3-5.9,5.5-10.3,11.8-15.5c2.6-2.1,9.2-7,9.2-7L87.4,21.8z"/>
<linearGradient id="SVGID_4_" gradientUnits="userSpaceOnUse" x1="38.5511" y1="71.3043" x2="80.6511" y2="71.3043" gradientTransform="matrix(1 0 0 -1 0 87.3185)">
	<stop  offset="0" style="stop-color:#B94950"/>
	<stop  offset="1" style="stop-color:#E59189"/>
</linearGradient>
<path class="st5" d="M80.6,13.6c0,0-8.5,7.2-13.6,9.3c-5.1,2.1-12.1-0.8-19.5,1.4c-7.4,2.2-9,3.2-9,3.2S45.9,21,52.7,20
	c6.9-1,14.5-5.6,16.8-8.2c2.2-2.6,3.7-7.3,3.7-7.3L80.6,13.6z"/>
<linearGradient id="SVGID_5_" gradientUnits="userSpaceOnUse" x1="-7.326" y1="48.5121" x2="41.874" y2="48.5121" gradientTransform="matrix(1 0 0 -1 0 87.3185)">
	<stop  offset="0" style="stop-color:#B94950"/>
	<stop  offset="1" style="stop-color:#E59189"/>
</linearGradient>
<path class="st6" d="M21.2,40.8l-6.3,6.8c0,0,8.7,4.2,17.8-1.4c9.1-5.7,13.1-15.4,20.6-16.9c7.5-1.4,10.8-0.6,10.8-0.6
	s-19-0.6-25.2,2.2C32.9,33.6,21.2,40.8,21.2,40.8z"/>
</svg>
