<svg id="图层_1" data-name="图层 1" xmlns="http://www.w3.org/2000/svg" viewBox="0 0 27.29 24.24"><defs><style>.cls-1{fill:none;stroke:#a1474f;stroke-width:2px;}</style></defs><title>icon_社区</title><g id="组_163" data-name="组 163"><path id="路径_113" data-name="路径 113" class="cls-1" d="M28.29,28.23a9.08,9.08,0,0,0-2.54-3.95,2.81,2.81,0,0,0-1.66-.62h-.16a2.81,2.81,0,0,0-1.66.62,9.17,9.17,0,0,0-2.54,3.95c-.73,2.05-1.82,2.1-2.23,3.33s-1.59,5.78,5.59,5.74l.93,0,.91,0c7.18,0,6-4.51,5.59-5.74S29,30.28,28.29,28.23Z" transform="translate(-10.51 -14.1)"/><path id="路径_114" data-name="路径 114" class="cls-1" d="M21.83,22.27a3.5,3.5,0,0,0,.8-2.53c.07-1.35.16-3.06-1.12-4a3.36,3.36,0,0,0-3.58-.17c-1.56.88-1.68,2.75-1.73,3.53a3.87,3.87,0,0,0,.91,3.13,3.93,3.93,0,0,0,4.71.08Z" transform="translate(-10.51 -14.1)"/><path id="路径_112" data-name="路径 112" class="cls-1" d="M15.88,24a3,3,0,0,0-2.67-.34c-1.58.67-1.68,2.7-1.69,3.12a3.05,3.05,0,0,0,.88,2.43,2.86,2.86,0,0,0,1.9.68,3,3,0,0,0,2.1-.74,3,3,0,0,0,.81-2.1A3.49,3.49,0,0,0,15.88,24Z" transform="translate(-10.51 -14.1)"/><path id="路径_115" data-name="路径 115" class="cls-1" d="M30.22,16.9A3.09,3.09,0,0,0,27,16.44c-1.58.79-1.54,2.94-1.53,3.47a3.21,3.21,0,0,0,.88,2.43,2.88,2.88,0,0,0,1.9.68,3.09,3.09,0,0,0,2.1-.74,3.18,3.18,0,0,0,1-2A3.7,3.7,0,0,0,30.22,16.9Z" transform="translate(-10.51 -14.1)"/><path id="路径_116" data-name="路径 116" class="cls-1" d="M35.56,24a3.11,3.11,0,0,0-3.18-.46c-1.58.8-1.53,3-1.52,3.47a3.16,3.16,0,0,0,.88,2.44,2.86,2.86,0,0,0,1.9.68,3.13,3.13,0,0,0,2.1-.75,3.26,3.26,0,0,0,1-2A3.73,3.73,0,0,0,35.56,24Z" transform="translate(-10.51 -14.1)"/></g></svg>