<svg id="图层_1" data-name="图层 1" xmlns="http://www.w3.org/2000/svg" viewBox="0 0 25.29 22.24"><defs><style>.cls-1{fill:#d47772;}</style></defs><title>icon_社区_press</title><path id="路径_113" data-name="路径 113" class="cls-1" d="M30.64,27.57a9.17,9.17,0,0,0-2.54-3.95A2.84,2.84,0,0,0,26.43,23h-.15a2.78,2.78,0,0,0-1.66.62,9.1,9.1,0,0,0-2.55,3.95c-.72,2.05-1.82,2.1-2.22,3.33s-1.59,5.78,5.59,5.74l.92,0,.92,0c7.18,0,6-4.5,5.59-5.74S31.37,29.62,30.64,27.57Z" transform="translate(-13.85 -14.44)"/><path id="路径_114" data-name="路径 114" class="cls-1" d="M24.17,21.62a3.5,3.5,0,0,0,.8-2.54c.07-1.35.16-3.06-1.11-4a3.38,3.38,0,0,0-3.59-.17c-1.56.89-1.67,2.76-1.72,3.53a3.87,3.87,0,0,0,.91,3.13,3.93,3.93,0,0,0,4.71.08Z" transform="translate(-13.85 -14.44)"/><path id="路径_112" data-name="路径 112" class="cls-1" d="M18.23,23.38A3,3,0,0,0,15.56,23c-1.58.67-1.69,2.7-1.7,3.12a3.16,3.16,0,0,0,.88,2.44,2.87,2.87,0,0,0,1.9.67,2.89,2.89,0,0,0,2.1-.74,2.94,2.94,0,0,0,.81-2.1A3.49,3.49,0,0,0,18.23,23.38Z" transform="translate(-13.85 -14.44)"/><path id="路径_115" data-name="路径 115" class="cls-1" d="M32.57,16.24a3.11,3.11,0,0,0-3.19-.46c-1.58.79-1.53,2.94-1.52,3.47a3.21,3.21,0,0,0,.88,2.44,2.9,2.9,0,0,0,1.9.67,3.09,3.09,0,0,0,2.1-.74,3.23,3.23,0,0,0,1-2A3.72,3.72,0,0,0,32.57,16.24Z" transform="translate(-13.85 -14.44)"/><path id="路径_116" data-name="路径 116" class="cls-1" d="M37.91,23.36a3.09,3.09,0,0,0-3.18-.45c-1.58.79-1.54,2.94-1.53,3.46a3.23,3.23,0,0,0,.88,2.44,2.88,2.88,0,0,0,1.9.68,3.1,3.1,0,0,0,2.1-.75,3.16,3.16,0,0,0,1-2A3.7,3.7,0,0,0,37.91,23.36Z" transform="translate(-13.85 -14.44)"/></svg>