<svg id="图层_1" data-name="图层 1" xmlns="http://www.w3.org/2000/svg" viewBox="0 0 26.24 13.16"><defs><style>.cls-1,.cls-2,.cls-3{fill:none;stroke:#dfb8b9;stroke-width:1.5px;}.cls-1{stroke-miterlimit:10;}.cls-3{stroke-linecap:round;stroke-linejoin:round;}</style></defs><title>百科</title><g id="组_240" data-name="组 240"><circle id="椭圆_293" data-name="椭圆 293" class="cls-1" cx="7.43" cy="7.45" r="4.96"/><circle id="椭圆_294" data-name="椭圆 294" class="cls-1" cx="18.76" cy="7.45" r="4.96"/><path id="路径_162" data-name="路径 162" class="cls-2" d="M24,24.1a.49.49,0,0,0,.4.28.51.51,0,0,0,.43-.28v1.81a.74.74,0,0,0-.83,0Z" transform="translate(-11.31 -17.73)"/><path id="路径_163" data-name="路径 163" class="cls-3" d="M13.78,25.18H12.06l2.72-5.85a3.26,3.26,0,0,0,1.33-.59" transform="translate(-11.31 -17.73)"/><path id="路径_164" data-name="路径 164" class="cls-3" d="M35.08,24.92H36.8l-2.71-5.85a3.2,3.2,0,0,1-1.33-.59" transform="translate(-11.31 -17.73)"/></g></svg>