<?xml version="1.0" encoding="utf-8"?>
<!-- Generator: Adobe Illustrator 23.0.4, SVG Export Plug-In . SVG Version: 6.00 Build 0)  -->
<svg version="1.1" id="图层_1" xmlns="http://www.w3.org/2000/svg" xmlns:xlink="http://www.w3.org/1999/xlink" x="0px" y="0px"
	 viewBox="0 0 88.3 124.3" style="enable-background:new 0 0 88.3 124.3;" xml:space="preserve">
<style type="text/css">
	.st0{fill:#E59189;}
	.st1{fill:url(#SVGID_1_);}
	.st2{fill:url(#SVGID_2_);}
	.st3{fill:url(#SVGID_3_);}
	.st4{fill:#FFFFFF;}
	.st5{fill:url(#SVGID_4_);}
	.st6{fill:url(#SVGID_5_);}
	.st7{fill:url(#SVGID_6_);}
	.st8{fill:url(#SVGID_7_);}
	.st9{fill:url(#SVGID_8_);}
</style>
<g>
	<path class="st0" d="M16.8,113.5L16.8,113.5C7.5,113.5,0,106,0,96.7V16.9C0,7.6,7.5,0.1,16.8,0.1l0,0c9.3,0,16.8,7.5,16.8,16.8
		v79.8C33.6,106,26.1,113.5,16.8,113.5z"/>
	
		<linearGradient id="SVGID_1_" gradientUnits="userSpaceOnUse" x1="16.8549" y1="829.51" x2="16.8549" y2="717.4" gradientTransform="matrix(1 0 0 1 0 -717.4)">
		<stop  offset="0" style="stop-color:#B94950"/>
		<stop  offset="1" style="stop-color:#E59189"/>
	</linearGradient>
	<path class="st1" d="M16.8,0c-0.4,0.1-1.1,0.3-1.7,0.6c-3.3,2-3.1,7.7-2.9,12.9c0.2,5.5,0.3,10.3,2.9,15.7
		c2.6,5.3,6.3,8.4,8.7,11.5c6.6,8.5,7.8,18.2,8.6,28.1c1.1,13.4-0.3,40-11.4,43c-6.1,1.7-15.1-3.8-18.6-11.4
		c-7.1-15.6,15.3-26.6,11.9-49.9C12.4,37.2,2.2,21.6,5,12c1.2-4,3.7-6.9,3.7-6.9C11.6,2,15,0.6,16.8,0z"/>
	
		<linearGradient id="SVGID_2_" gradientUnits="userSpaceOnUse" x1="24.9621" y1="768.4" x2="24.9621" y2="717.8" gradientTransform="matrix(1 0 0 1 0 -717.4)">
		<stop  offset="0" style="stop-color:#B94950"/>
		<stop  offset="1" style="stop-color:#E59189"/>
	</linearGradient>
	<path class="st2" d="M20.2,0.4c0,0-2.1,2.6-2,5.9c0.1,4.8,0.9,7.9,4.8,16.6c6.8,15.3,7.4,18.4,7.3,21.7c-0.1,1.8-0.4,6.4,0,6.4
		c0.1,0,0.3-0.6,0.5-1.1c0.2-1.8,0.3-4.3,0.5-7.3c0.4-9,0.8-13.6-0.2-16.6c-1.5-4.7-9.2-18.2-9.4-20.6s0.5-4.6,0.5-4.6
		S21.1,0.5,20.2,0.4z"/>
	
		<linearGradient id="SVGID_3_" gradientUnits="userSpaceOnUse" x1="4.3972" y1="778.5401" x2="4.3972" y2="739.8058" gradientTransform="matrix(1 0 0 1 0 -717.4)">
		<stop  offset="0" style="stop-color:#B94950"/>
		<stop  offset="1" style="stop-color:#E59189"/>
	</linearGradient>
	<path class="st3" d="M3.2,28.8c0,0-3.7,14.2-2.3,19s5.2,10.4,4.9,13C5.5,63.5,9.3,46.6,7.9,42c-1.5-4.6-4.2-14.3-4.3-18.5
		S3.2,28.8,3.2,28.8z"/>
	<path class="st4" d="M30.3,56.7v38.8c0,7-5.7,12.7-12.7,12.7h-1.2c-7,0-12.7-5.7-12.7-12.7V56.7"/>
	
		<linearGradient id="SVGID_4_" gradientUnits="userSpaceOnUse" x1="5.6" y1="799.299" x2="28.0956" y2="799.299" gradientTransform="matrix(1 0 0 1 0 -717.4)">
		<stop  offset="0" style="stop-color:#FAD2BD"/>
		<stop  offset="1" style="stop-color:#FFFFFF"/>
	</linearGradient>
	<path class="st5" d="M14.5,57.9c0,0-6.8,23-8.9,25.1v12.5c0,0,1.1,9.2,10.1,10.3c9,1.1,11.8-7.4,12.4-8.9s-4.2-32.3-3.9-34.1
		s1.5-4.9,1.5-4.9"/>
</g>
<g>
	<path class="st0" d="M71.5,10.9L71.5,10.9c-9.3,0-16.8,7.5-16.8,16.8v79.8c0,9.3,7.5,16.8,16.8,16.8l0,0c9.3,0,16.8-7.5,16.8-16.8
		V27.7C88.3,18.4,80.8,10.9,71.5,10.9z"/>
	
		<linearGradient id="SVGID_5_" gradientUnits="userSpaceOnUse" x1="71.5549" y1="3381.5432" x2="71.5549" y2="3269.4333" gradientTransform="matrix(1 0 0 -1 0 3393.7332)">
		<stop  offset="0" style="stop-color:#B94950"/>
		<stop  offset="1" style="stop-color:#E59189"/>
	</linearGradient>
	<path class="st6" d="M71.5,124.3c-0.4-0.1-1.1-0.3-1.7-0.6c-3.3-2-3.1-7.7-2.9-12.9c0.2-5.5,0.3-10.3,2.9-15.7
		c2.6-5.3,6.3-8.4,8.7-11.5c6.6-8.5,7.8-18.2,8.6-28.1c1.1-13.4-0.3-40-11.4-43c-6.1-1.7-15.1,3.8-18.6,11.4
		C50,39.5,72.4,50.5,69,73.8c-1.9,13.3-12.1,28.9-9.3,38.5c1.2,4,3.7,6.9,3.7,6.9C66.3,122.4,69.7,123.8,71.5,124.3z"/>
	
		<linearGradient id="SVGID_6_" gradientUnits="userSpaceOnUse" x1="79.6621" y1="3320.3333" x2="79.6621" y2="3269.7332" gradientTransform="matrix(1 0 0 -1 0 3393.7332)">
		<stop  offset="0" style="stop-color:#B94950"/>
		<stop  offset="1" style="stop-color:#E59189"/>
	</linearGradient>
	<path class="st7" d="M74.9,124c0,0-2.1-2.6-2-5.9c0.1-4.8,0.9-7.9,4.8-16.6c6.8-15.3,7.4-18.4,7.3-21.7c-0.1-1.8-0.4-6.4,0-6.4
		c0.1,0,0.3,0.6,0.5,1.1c0.2,1.8,0.3,4.3,0.5,7.3c0.4,9,0.8,13.6-0.2,16.6c-1.5,4.7-9.2,18.2-9.4,20.6c-0.2,2.4,0.5,4.6,0.5,4.6
		S75.9,123.8,74.9,124z"/>
	
		<linearGradient id="SVGID_7_" gradientUnits="userSpaceOnUse" x1="59.1972" y1="3330.5049" x2="59.1972" y2="3291.7705" gradientTransform="matrix(1 0 0 -1 0 3393.7332)">
		<stop  offset="0" style="stop-color:#B94950"/>
		<stop  offset="1" style="stop-color:#E59189"/>
	</linearGradient>
	<path class="st8" d="M58,95.5c0,0-3.7-14.2-2.3-19c1.5-4.8,5.2-10.4,4.9-13c-0.3-2.6,3.5,14.2,2.1,18.8c-1.5,4.6-4.2,14.3-4.3,18.5
		C58.4,105.1,58,95.5,58,95.5z"/>
	<path class="st4" d="M85,67.7V28.9c0-7-5.7-12.7-12.7-12.7h-1.2c-7,0-12.7,5.7-12.7,12.7v38.8"/>
	
		<linearGradient id="SVGID_8_" gradientUnits="userSpaceOnUse" x1="65.1169" y1="3351.0833" x2="83.486" y2="3351.0833" gradientTransform="matrix(1 0 0 -1 0 3393.7332)">
		<stop  offset="0" style="stop-color:#FAD2BD"/>
		<stop  offset="1" style="stop-color:#FFFFFF"/>
	</linearGradient>
	<path class="st9" d="M69.2,66.5c-1.5-3.1-2.9-7.1-3.7-11.8c-2.3-15.2,4.8-27.4,7.6-31.5l0,0l3.1-4.4l0,0c4.2,3.2,5.8,6.4,6.6,8.7
		c3.4,10.6-6.9,19.6-3.9,34.1c0.5,2.1,1.1,3.8,1.5,4.9"/>
</g>
</svg>
