<?xml version="1.0" encoding="utf-8"?>
<!-- Generator: Adobe Illustrator 23.0.4, SVG Export Plug-In . SVG Version: 6.00 Build 0)  -->
<svg version="1.1" id="图层_1" xmlns="http://www.w3.org/2000/svg" xmlns:xlink="http://www.w3.org/1999/xlink" x="0px" y="0px"
	 viewBox="0 0 595.3 841.9" style="enable-background:new 0 0 595.3 841.9;" xml:space="preserve">
<style type="text/css">
	.st0{fill:#E59189;}
	.st1{fill:url(#SVGID_1_);}
	.st2{fill:url(#SVGID_2_);}
	.st3{fill:#FFFFFF;}
	.st4{fill:url(#SVGID_3_);}
	.st5{fill:url(#SVGID_4_);}
</style>
<g>
	<path class="st0" d="M260.8,393.8c0-9.3,5.6-17.7,14.8-24c-26.5,6.4-45.8,26.6-45.8,50.4c0,29,28.6,52.6,63.9,52.6
		s63.9-23.5,63.9-52.6c0-0.7,0-1.4-0.1-2.1c-10.2,6.9-24.7,11.2-40.7,11.2C285.8,429.3,260.8,413.4,260.8,393.8z"/>
</g>
<path class="st0" d="M353.1,416.1c-5.4,3-12.7,6.1-21.6,7.7c-25.1,4.7-45.5-5.6-52.8-9.8c0,0,6.2-28.1,7.8-31.3
	c1.2-2.5,2.1-9.5,7.1-12.1c0.8-0.4,1.6-0.8,2.7-0.7c4.1,0.4,3.6,8.2,8.3,12.9c8,7.9,27.2,3.3,27.2,3.3l0,0c0,0,0.9-3.7,2.2-7.3
	c1.3-3.5,2.7-6.3,5.1-6.8c1.5-0.3,2.7,0.4,2.9,0.5c1.9,1.2,2.3,3.7,2.5,4.6C345.2,381.2,348.5,395.8,353.1,416.1z"/>
<path class="st0" d="M354.4,404l2.7,10.3c0,0,3.6-8.6,4.5-9.8c0.9-1.2,3.4-5.8,2.9-8.2s-1-3.4-2.7-3.5c-0.9-0.1-1.9,0.5-4.6,4
	c-2.9,3.8-3.2,5-3,6.2C354.1,403.4,354.3,403.7,354.4,404z"/>
<linearGradient id="SVGID_1_" gradientUnits="userSpaceOnUse" x1="291.5234" y1="456.3437" x2="291.5234" y2="388.9618">
	<stop  offset="0" style="stop-color:#B94950"/>
	<stop  offset="1" style="stop-color:#E59189"/>
</linearGradient>
<path class="st1" d="M237.5,395.1c0,0-5.6,23.3,8.6,33.3c14.3,9.9,56.5,10.3,71.3,6.8c14.8-3.6,29.2-11.4,29.2-11.4
	s-25.3,10.8-57.5,0.3c-32.3-10.5-28.6-30.6-28.1-33.2c0.5-2.6,3.3-15.3,14.6-21.1C275.5,369.8,249.5,375.9,237.5,395.1z"/>
<linearGradient id="SVGID_2_" gradientUnits="userSpaceOnUse" x1="219.0145" y1="453.0778" x2="322.0948" y2="453.0778">
	<stop  offset="0" style="stop-color:#B94950"/>
	<stop  offset="0.8379" style="stop-color:#E59189"/>
</linearGradient>
<path class="st2" d="M351.4,442.8c-5.2,3.9-24.7,17.5-52.7,16.2c-27.6-1.4-45.4-16.3-50.3-20.7c2.3,4.3,6.6,10.8,13.7,16.7
	c14.3,11.8,30,12.9,34.4,13c12.5,0.4,27.8-4,36.3-9.7c8.4-5.7,16.7-12.3,16.7-12.3L351.4,442.8z"/>
<circle class="st3" cx="305.8" cy="401.4" r="4"/>
<circle class="st3" cx="331.9" cy="402" r="4"/>
<linearGradient id="SVGID_3_" gradientUnits="userSpaceOnUse" x1="327.4536" y1="416.2224" x2="327.4536" y2="372.0053">
	<stop  offset="0" style="stop-color:#B94950"/>
	<stop  offset="1" style="stop-color:#E59189"/>
</linearGradient>
<path class="st4" d="M301.8,378.8c0.9,2.6,3.2,8.1,8.8,11.5c3.8,2.3,7.6,2.8,10.4,3.2c2.6,0.4,5.7,0.6,9.8,0.1
	c10.2-1.2,17,8.4,17,8.4s4.9,11.2,5.3,14.1s-9-40.7-9-40.7c-2.6-3.3-4.1-3.6-4.9-3.4c-3.4,0.9-1.8,11.4-7.4,14.1
	c-0.4,0.2-1.2,0.3-2.9,0.6c-5.1,0.7-9.9,1.4-15.5,0.1c-1.8-0.4-4.4-1.2-7.3-2.9l-1.8-1.8"/>
<linearGradient id="SVGID_4_" gradientUnits="userSpaceOnUse" x1="298.9256" y1="424.9396" x2="298.9256" y2="401.4045">
	<stop  offset="0" style="stop-color:#B94950"/>
	<stop  offset="1" style="stop-color:#E59189"/>
</linearGradient>
<path class="st5" d="M282.9,401.4c2.6,6.4,6.2,10.5,8.6,12.9c10.4,10.3,23,10.7,24.4,10.7c0.1,0,0.9,0,0.9-0.1c0-0.1-3,0-6.5-0.4
	c-1.8-0.2-3.3-0.4-4.3-0.6c-2.8-0.7-16.2-4.2-20.2-6.1c-0.3-0.1-0.8-0.4-1.4-0.8c-2.4-1.9-2.9-4.9-3.2-6.2
	C280.4,406.5,282.1,402.8,282.9,401.4z"/>
</svg>
