<?xml version="1.0" encoding="utf-8"?>
<!-- Generator: Adobe Illustrator 23.0.4, SVG Export Plug-In . SVG Version: 6.00 Build 0)  -->
<svg version="1.1" id="图层_1" xmlns="http://www.w3.org/2000/svg" xmlns:xlink="http://www.w3.org/1999/xlink" x="0px" y="0px"
	 viewBox="0 0 146 117" style="enable-background:new 0 0 146 117;" xml:space="preserve">
<style type="text/css">
	.st0{fill:#E59189;}
	.st1{fill:url(#SVGID_1_);}
	.st2{fill:url(#SVGID_2_);}
	.st3{fill:#FFFFFF;}
	.st4{fill:url(#SVGID_3_);}
	.st5{fill:url(#SVGID_4_);}
</style>
<g>
	<path class="st0" d="M36.8,30.9c0-9.3,5.6-17.7,14.8-24C25.1,13.3,5.8,33.5,5.8,57.3c0,29,28.6,52.6,63.9,52.6s63.9-23.5,63.9-52.6
		c0-0.7,0-1.4-0.1-2.1c-10.2,6.9-24.7,11.2-40.7,11.2C61.8,66.4,36.8,50.5,36.8,30.9z"/>
</g>
<path class="st0" d="M129.1,53.2c-5.4,3-12.7,6.1-21.6,7.7c-25.1,4.7-45.5-5.6-52.8-9.8c0,0,6.2-28.1,7.8-31.3
	c1.2-2.5,2.1-9.5,7.1-12.1c0.8-0.4,1.6-0.8,2.7-0.7c4.1,0.4,3.6,8.2,8.3,12.9c8,7.9,27.2,3.3,27.2,3.3l0,0c0,0,0.9-3.7,2.2-7.3
	c1.3-3.5,2.7-6.3,5.1-6.8c1.5-0.3,2.7,0.4,2.9,0.5c1.9,1.2,2.3,3.7,2.5,4.6C121.2,18.3,124.5,32.9,129.1,53.2z"/>
<path class="st0" d="M130.4,41.1l2.7,10.3c0,0,3.6-8.6,4.5-9.8c0.9-1.2,3.4-5.8,2.9-8.2s-1-3.4-2.7-3.5c-0.9-0.1-1.9,0.5-4.6,4
	c-2.9,3.8-3.2,5-3,6.2C130.1,40.5,130.3,40.8,130.4,41.1z"/>
<linearGradient id="SVGID_1_" gradientUnits="userSpaceOnUse" x1="67.5056" y1="22.6563" x2="67.5056" y2="90.0589" gradientTransform="matrix(1 0 0 -1 0 116.11)">
	<stop  offset="0" style="stop-color:#B94950"/>
	<stop  offset="1" style="stop-color:#E59189"/>
</linearGradient>
<path class="st1" d="M13.5,32.2c0,0-5.6,23.3,8.6,33.3c14.3,9.9,56.5,10.3,71.3,6.8c14.8-3.6,29.2-11.4,29.2-11.4
	s-25.3,10.8-57.5,0.3C32.8,50.7,36.5,30.6,37,28s3.3-15.3,14.6-21.1C51.5,6.9,25.5,13,13.5,32.2z"/>
<linearGradient id="SVGID_2_" gradientUnits="userSpaceOnUse" x1="-4.9855" y1="25.8374" x2="98.0145" y2="25.8374" gradientTransform="matrix(1 0 0 -1 0 116.11)">
	<stop  offset="0" style="stop-color:#B94950"/>
	<stop  offset="0.8379" style="stop-color:#E59189"/>
</linearGradient>
<path class="st2" d="M127.4,79.9c-5.2,3.9-24.7,17.5-52.7,16.2c-27.6-1.4-45.4-16.3-50.3-20.7c2.3,4.3,6.6,10.8,13.7,16.7
	c14.3,11.8,30,12.9,34.4,13c12.5,0.4,27.8-4,36.3-9.7c8.4-5.7,16.7-12.3,16.7-12.3L127.4,79.9z"/>
<circle class="st3" cx="81.8" cy="38.5" r="4"/>
<circle class="st3" cx="107.9" cy="39.1" r="4"/>
<linearGradient id="SVGID_3_" gradientUnits="userSpaceOnUse" x1="103.4562" y1="62.7615" x2="103.4562" y2="106.9786" gradientTransform="matrix(1 0 0 -1 0 116.11)">
	<stop  offset="0" style="stop-color:#B94950"/>
	<stop  offset="1" style="stop-color:#E59189"/>
</linearGradient>
<path class="st4" d="M77.8,15.9c0.9,2.6,3.2,8.1,8.8,11.5c3.8,2.3,7.6,2.8,10.4,3.2c2.6,0.4,5.7,0.6,9.8,0.1c10.2-1.2,17,8.4,17,8.4
	s4.9,11.2,5.3,14.1s-9-40.7-9-40.7c-2.6-3.3-4.1-3.6-4.9-3.4c-3.4,0.9-1.8,11.4-7.4,14.1c-0.4,0.2-1.2,0.3-2.9,0.6
	c-5.1,0.7-9.9,1.4-15.5,0.1c-1.8-0.4-4.4-1.2-7.3-2.9l-1.8-1.8"/>
<linearGradient id="SVGID_4_" gradientUnits="userSpaceOnUse" x1="74.8956" y1="54.0604" x2="74.8956" y2="77.5955" gradientTransform="matrix(1 0 0 -1 0 116.11)">
	<stop  offset="0" style="stop-color:#B94950"/>
	<stop  offset="1" style="stop-color:#E59189"/>
</linearGradient>
<path class="st5" d="M58.9,38.5c2.6,6.4,6.2,10.5,8.6,12.9c10.4,10.3,23,10.7,24.4,10.7c0.1,0,0.9,0,0.9-0.1s-3,0-6.5-0.4
	C84.5,61.4,83,61.2,82,61c-2.8-0.7-16.2-4.2-20.2-6.1c-0.3-0.1-0.8-0.4-1.4-0.8c-2.4-1.9-2.9-4.9-3.2-6.2
	C56.4,43.6,58.1,39.9,58.9,38.5z"/>
</svg>
