<?xml version="1.0" encoding="utf-8"?>
<!-- Generator: Adobe Illustrator 23.0.4, SVG Export Plug-In . SVG Version: 6.00 Build 0)  -->
<svg version="1.1" id="图层_1" xmlns="http://www.w3.org/2000/svg" xmlns:xlink="http://www.w3.org/1999/xlink" x="0px" y="0px"
	 viewBox="0 0 595.3 841.9" style="enable-background:new 0 0 595.3 841.9;" xml:space="preserve">
<style type="text/css">
	.st0{fill:#E59189;}
	.st1{fill:#FFFFFF;}
	.st2{fill:url(#SVGID_1_);}
	.st3{fill:url(#SVGID_2_);}
	.st4{fill:url(#SVGID_3_);}
	.st5{fill:url(#SVGID_4_);}
	.st6{fill:url(#SVGID_5_);}
	.st7{fill:url(#SVGID_6_);}
</style>
<rect x="270.8" y="374" class="st0" width="52.4" height="69.6"/>
<path class="st0" d="M339.5,374h-85c-0.8,0-1.4-0.6-1.4-1.4l0,0c0-0.8,0.6-1.4,1.4-1.4h85c0.8,0,1.4,0.6,1.4,1.4l0,0
	C341,373.4,340.3,374,339.5,374z"/>
<rect x="292.6" y="361.8" class="st0" width="8.8" height="9.4"/>
<rect x="285" y="360.4" class="st0" width="24.1" height="1.4"/>
<polygon class="st0" points="297,456.7 270.8,443.7 323.3,443.7 "/>
<polygon class="st0" points="297,481.8 296.1,455.9 298,455.9 "/>
<rect x="273.7" y="374.1" class="st1" width="46.2" height="23.7"/>
<linearGradient id="SVGID_1_" gradientUnits="userSpaceOnUse" x1="275.7751" y1="426.4044" x2="319.9683" y2="426.4044">
	<stop  offset="0" style="stop-color:#CB726F"/>
	<stop  offset="1" style="stop-color:#E59189"/>
</linearGradient>
<path class="st2" d="M310.4,399.1c1.6,1.3,3.8,3.6,5.4,6.9c3.1,6.2,4,15.3-0.4,21.6c-5.4,7.7-16.9,8.3-25.3,8.7
	c-9.2,0.4-13.1-1.5-14.1,0.4c-1.9,3.5,9.3,11.4,18.5,16.6c1.5,0.8,3.4,0.2,5.1,0c1.6-0.2-2.5-9.7,1-13.6c3.4-3.9,15.2-5.6,17.6-8.7
	S322.4,404.9,310.4,399.1z"/>
<linearGradient id="SVGID_2_" gradientUnits="userSpaceOnUse" x1="301.7385" y1="432.4222" x2="322.6958" y2="432.4222">
	<stop  offset="0" style="stop-color:#CB726F"/>
	<stop  offset="1" style="stop-color:#E59189"/>
</linearGradient>
<path class="st3" d="M321.6,415.8c-0.1-0.4,3.2,10.9-2,16.9c-4.2,4.8-10.8,2.5-15.4,8.6c-1.4,1.9-3.3,5.4-2.1,6.9
	c1.9,2.4,11.8,0.2,16.8-6.2c3.3-4.3,3.6-9.3,3.8-15.1C322.8,422.2,322.2,418.4,321.6,415.8z"/>
<linearGradient id="SVGID_3_" gradientUnits="userSpaceOnUse" x1="294.4364" y1="366.4784" x2="299.9954" y2="366.4784">
	<stop  offset="0" style="stop-color:#B94950"/>
	<stop  offset="1" style="stop-color:#E59189"/>
</linearGradient>
<path class="st4" d="M294.8,361.8c0,0,2.2,0.5,2.9,2c0.7,1.5-1.5,3.3-2.5,4.6c-1,1.3-0.7,2.8-0.7,2.8h3.5c0,0-1.1-2.2,0-3.9
	c1.1-1.7,2.1-3.9,2-4.7C300,361.8,294.8,361.8,294.8,361.8z"/>
<linearGradient id="SVGID_4_" gradientUnits="userSpaceOnUse" x1="274.3447" y1="416.3356" x2="305.9905" y2="416.3356">
	<stop  offset="0" style="stop-color:#C26362"/>
	<stop  offset="1" style="stop-color:#E59189"/>
</linearGradient>
<path class="st5" d="M274.3,399.6c0,0,9,7.6,10.6,13.1c1.6,5.5-5.3,20.2-5.3,20.2s13.7,2,18.2-5.2c5-7.9,2.4-17.4,7.3-23.4
	c0.3-0.3,0.9-1.1,0.7-1.9c-0.5-2-6.3-2-10.9-2C290.1,400.2,283.1,400.1,274.3,399.6z"/>
<rect x="274.3" y="407.6" class="st1" width="25.7" height="3"/>
<rect x="274.3" y="417.7" class="st1" width="25.7" height="3"/>
<rect x="274.3" y="428.8" class="st1" width="25.7" height="3"/>
<linearGradient id="SVGID_5_" gradientUnits="userSpaceOnUse" x1="295.6972" y1="385.8846" x2="319.9683" y2="385.8846">
	<stop  offset="0" style="stop-color:#FAD2BD"/>
	<stop  offset="1" style="stop-color:#FFFFFF"/>
</linearGradient>
<path class="st6" d="M295.7,375.5c0,0,5.5,3.2,5.8,8.4s-2.9,12.4-2.9,12.4H320v-20.8"/>
<linearGradient id="SVGID_6_" gradientUnits="userSpaceOnUse" x1="337.4575" y1="426.567" x2="337.4575" y2="426.567">
	<stop  offset="0" style="stop-color:#B94950"/>
	<stop  offset="1" style="stop-color:#E59189"/>
</linearGradient>
<path class="st7" d="M337.5,426.6"/>
</svg>
