<?xml version="1.0" encoding="utf-8"?>
<!-- Generator: Adobe Illustrator 23.0.4, SVG Export Plug-In . SVG Version: 6.00 Build 0)  -->
<svg version="1.1" id="图层_1" xmlns="http://www.w3.org/2000/svg" xmlns:xlink="http://www.w3.org/1999/xlink" x="0px" y="0px"
	 viewBox="0 0 87.8 121.4" style="enable-background:new 0 0 87.8 121.4;" xml:space="preserve">
<style type="text/css">
	.st0{fill:#E59189;}
	.st1{fill:#FFFFFF;}
	.st2{fill:url(#SVGID_1_);}
	.st3{fill:url(#SVGID_2_);}
	.st4{fill:url(#SVGID_3_);}
	.st5{fill:url(#SVGID_4_);}
	.st6{fill:url(#SVGID_5_);}
	.st7{fill:url(#SVGID_6_);}
</style>
<rect x="17.7" y="13.6" class="st0" width="52.4" height="69.6"/>
<path class="st0" d="M86.4,13.6h-85C0.6,13.6,0,13,0,12.2l0,0c0-0.8,0.6-1.4,1.4-1.4h85c0.8,0,1.4,0.6,1.4,1.4l0,0
	C87.9,13,87.2,13.6,86.4,13.6z"/>
<rect x="39.5" y="1.4" class="st0" width="8.8" height="9.4"/>
<rect x="31.9" class="st0" width="24.1" height="1.4"/>
<polygon class="st0" points="43.9,96.3 17.7,83.3 70.2,83.3 "/>
<polygon class="st0" points="43.9,121.4 43,95.5 44.9,95.5 "/>
<rect x="20.6" y="13.7" class="st1" width="46.2" height="23.7"/>
<linearGradient id="SVGID_1_" gradientUnits="userSpaceOnUse" x1="22.6872" y1="55.0879" x2="66.852" y2="55.0879" gradientTransform="matrix(1 0 0 -1 0 121.09)">
	<stop  offset="0" style="stop-color:#CB726F"/>
	<stop  offset="1" style="stop-color:#E59189"/>
</linearGradient>
<path class="st2" d="M57.3,38.7c1.6,1.3,3.8,3.6,5.4,6.9c3.1,6.2,4,15.3-0.4,21.6c-5.4,7.7-16.9,8.3-25.3,8.7
	c-9.2,0.4-13.1-1.5-14.1,0.4c-1.9,3.5,9.3,11.4,18.5,16.6c1.5,0.8,3.4,0.2,5.1,0c1.6-0.2-2.5-9.7,1-13.6c3.4-3.9,15.2-5.6,17.6-8.7
	S69.3,44.5,57.3,38.7z"/>
<linearGradient id="SVGID_2_" gradientUnits="userSpaceOnUse" x1="48.6198" y1="49.022" x2="69.5771" y2="49.022" gradientTransform="matrix(1 0 0 -1 0 121.09)">
	<stop  offset="0" style="stop-color:#CB726F"/>
	<stop  offset="1" style="stop-color:#E59189"/>
</linearGradient>
<path class="st3" d="M68.5,55.4c-0.1-0.4,3.2,10.9-2,16.9c-4.2,4.8-10.8,2.5-15.4,8.6c-1.4,1.9-3.3,5.4-2.1,6.9
	c1.9,2.4,11.8,0.2,16.8-6.2c3.3-4.3,3.6-9.3,3.8-15.1C69.7,61.8,69.1,58,68.5,55.4z"/>
<linearGradient id="SVGID_3_" gradientUnits="userSpaceOnUse" x1="41.3364" y1="114.99" x2="46.8954" y2="114.99" gradientTransform="matrix(1 0 0 -1 0 121.09)">
	<stop  offset="0" style="stop-color:#B94950"/>
	<stop  offset="1" style="stop-color:#E59189"/>
</linearGradient>
<path class="st4" d="M41.7,1.4c0,0,2.2,0.5,2.9,2c0.7,1.5-1.5,3.3-2.5,4.6c-1,1.3-0.7,2.8-0.7,2.8h3.5c0,0-1.1-2.2,0-3.9
	C46,5.2,47,3,46.9,2.2C46.9,1.4,41.7,1.4,41.7,1.4z"/>
<linearGradient id="SVGID_4_" gradientUnits="userSpaceOnUse" x1="21.2447" y1="65.1125" x2="52.8905" y2="65.1125" gradientTransform="matrix(1 0 0 -1 0 121.09)">
	<stop  offset="0" style="stop-color:#C26362"/>
	<stop  offset="1" style="stop-color:#E59189"/>
</linearGradient>
<path class="st5" d="M21.2,39.2c0,0,9,7.6,10.6,13.1s-5.3,20.2-5.3,20.2s13.7,2,18.2-5.2c5-7.9,2.4-17.4,7.3-23.4
	c0.3-0.3,0.9-1.1,0.7-1.9c-0.5-2-6.3-2-10.9-2C37,39.8,30,39.7,21.2,39.2z"/>
<rect x="21.2" y="47.2" class="st1" width="25.7" height="3"/>
<rect x="21.2" y="57.3" class="st1" width="25.7" height="3"/>
<rect x="21.2" y="68.4" class="st1" width="25.7" height="3"/>
<linearGradient id="SVGID_5_" gradientUnits="userSpaceOnUse" x1="42.6" y1="95.59" x2="66.8711" y2="95.59" gradientTransform="matrix(1 0 0 -1 0 121.09)">
	<stop  offset="0" style="stop-color:#FAD2BD"/>
	<stop  offset="1" style="stop-color:#FFFFFF"/>
</linearGradient>
<path class="st6" d="M42.6,15.1c0,0,5.5,3.2,5.8,8.4s-2.9,12.4-2.9,12.4h21.4V15.1"/>
<linearGradient id="SVGID_6_" gradientUnits="userSpaceOnUse" x1="84.4" y1="54.89" x2="84.4" y2="54.89" gradientTransform="matrix(1 0 0 -1 0 121.09)">
	<stop  offset="0" style="stop-color:#B94950"/>
	<stop  offset="1" style="stop-color:#E59189"/>
</linearGradient>
<path class="st7" d="M84.4,66.2"/>
</svg>
