<svg id="图层_1" data-name="图层 1" xmlns="http://www.w3.org/2000/svg" viewBox="0 0 22.9 20.14">
    <defs>
        <style>
            .cls-1{fill:#f2958d;}
        </style>
    </defs>
    <title>
        浏览量
    </title>
    <path id="路径_113" data-name="路径 113" class="cls-1" d="M27.92,26.81a8.47,8.47,0,0,0-2.3-3.58,2.55,2.55,0,0,0-1.5-.55H24a2.53,2.53,0,0,0-1.5.55,8.29,8.29,0,0,0-2.3,3.58c-.66,1.86-1.65,1.91-2,3s-1.44,5.24,5.06,5.2l.84,0,.83,0c6.5,0,5.43-4.08,5.06-5.2S28.58,28.67,27.92,26.81Z" transform="translate(-12.72 -14.93)"/>
    <path id="路径_114" data-name="路径 114" class="cls-1" d="M22.06,21.43a3.16,3.16,0,0,0,.73-2.3c.06-1.23.14-2.77-1-3.65a3.07,3.07,0,0,0-3.25-.16A3.72,3.72,0,0,0,17,18.52a3.47,3.47,0,0,0,.82,2.83,3.56,3.56,0,0,0,4.26.08Z" transform="translate(-12.72 -14.93)"/>
    <path id="路径_112" data-name="路径 112" class="cls-1" d="M16.68,23a2.73,2.73,0,0,0-2.42-.3c-1.43.6-1.53,2.44-1.53,2.82a2.78,2.78,0,0,0,.8,2.2,2.54,2.54,0,0,0,1.71.62,2.65,2.65,0,0,0,1.9-.68,2.67,2.67,0,0,0,.74-1.9A3.17,3.17,0,0,0,16.68,23Z" transform="translate(-12.72 -14.93)"/>
    <path id="路径_115" data-name="路径 115" class="cls-1" d="M29.66,16.55a2.81,2.81,0,0,0-2.88-.41c-1.43.72-1.39,2.66-1.38,3.14a2.86,2.86,0,0,0,.8,2.2,2.58,2.58,0,0,0,1.72.62,2.78,2.78,0,0,0,1.9-.68,2.86,2.86,0,0,0,.9-1.77A3.35,3.35,0,0,0,29.66,16.55Z" transform="translate(-12.72 -14.93)"/>
    <path id="路径_116" data-name="路径 116" class="cls-1" d="M34.5,23a2.81,2.81,0,0,0-2.88-.41c-1.43.72-1.39,2.66-1.38,3.14a2.88,2.88,0,0,0,.8,2.21,2.58,2.58,0,0,0,1.71.61,2.76,2.76,0,0,0,1.9-.68,2.82,2.82,0,0,0,.91-1.77A3.35,3.35,0,0,0,34.5,23Z" transform="translate(-12.72 -14.93)"/>
</svg>