<svg id="图层_1" data-name="图层 1" xmlns="http://www.w3.org/2000/svg" viewBox="0 0 14.85 17.25"><defs><style>.cls-1{fill:none;stroke:#a1474f;stroke-linecap:round;stroke-linejoin:round;}</style></defs><title>虚拟宠物</title><g id="组_256" data-name="组 256"><path id="路径_230" data-name="路径 230" class="cls-1" d="M37.32,33.41a4.82,4.82,0,0,1-1.76,4.31c-1.35,1-3,1-5.14,1s-3.94,0-5.3-1a4.69,4.69,0,0,1-1.55-4.31A6.84,6.84,0,0,1,30.42,28,6.78,6.78,0,0,1,37.32,33.41Z" transform="translate(-23 -22)"/><path id="路径_231" data-name="路径 231" class="cls-1" d="M24,28.26s-.17-5.56.55-5.76,2.93,3.47,3.1,4a.25.25,0,0,1,0,.19c0,.11-1.18.38-1.72.62-.92.4-1.17,1.18-1.68,1.07A.55.55,0,0,1,24,28.26Z" transform="translate(-23 -22)"/><path id="路径_232" data-name="路径 232" class="cls-1" d="M36.94,28.26s.17-5.56-.55-5.76-2.93,3.47-3.1,4a.25.25,0,0,0,0,.19c0,.11,1.17.38,1.72.62.92.4,1.17,1.18,1.68,1.07A.55.55,0,0,0,36.94,28.26Z" transform="translate(-23 -22)"/></g></svg>