<svg id="图层_1" data-name="图层 1" xmlns="http://www.w3.org/2000/svg" viewBox="0 0 378.06 230.17"><defs><style>.cls-1{fill:#cecece;}.cls-2,.cls-3{fill:#fff;}.cls-3{font-size:18px;font-family:AliHYAiHei;}</style></defs><title>失效</title><rect class="cls-1" width="378.06" height="230.17"/><path class="cls-2" d="M26.15,55.15c-3.43-2.88-7.2-5.41-9.28-9.5a5.78,5.78,0,0,1,2-7.76c4.85-2.73,9.68-5.43,14.66-7.9l-.14-.09c-5.41-3.23-15.14-6-17-12.67C14.3,9.94,24.25,3.76,28.91-.12c.68-.57,1.37-1.11,2.06-1.65L28.61-3.29c-4.91-3-10.08-6-14.48-9.73a5.67,5.67,0,0,1-.88-6.86,49.48,49.48,0,0,1,9.94-10.38,45.75,45.75,0,0,0,6.83,91c.64,0,1.28,0,1.92,0A73.41,73.41,0,0,0,26.15,55.15Z" transform="translate(157.63 84.08)"/><path class="cls-2" d="M41.08-29.41c-5,3.56-10.57,7-14.87,11.4,3.74,2.48,7.83,4.58,11.55,7,4.52,2.87,8.63,7.34,5.48,12.92-2.07,3.68-6.57,6.27-9.77,9-1.48,1.25-3,2.49-4.36,3.84,5.82,3.48,16.87,6.57,18.8,13.69C49.29,33.45,44.7,37,40.75,39c-3.39,1.77-6.76,3.54-10.12,5.35,1.5,1.19,3.1,2.29,4.46,3.53,3.5,3.19,6.73,6.78,10,10.27a45.75,45.75,0,0,0-4-87.6Z" transform="translate(157.63 84.08)"/><text class="cls-3" transform="translate(158.83 184.83)">失效啦！</text></svg>