<svg id="图层_1" data-name="图层 1" xmlns="http://www.w3.org/2000/svg" viewBox="0 0 19.67 16.65"><defs><style>.cls-1{fill:none;stroke:#fff;stroke-linejoin:round;stroke-width:2px;}</style></defs><title>客服</title><g id="组_337" data-name="组 337"><path id="路径_269" data-name="路径 269" class="cls-1" d="M24.17,33.31a7.11,7.11,0,1,1,12.45.43" transform="translate(-20.65 -22)"/><path id="矩形_346" data-name="矩形 346" class="cls-1" d="M22.47,32.47h0a1.27,1.27,0,0,1,1.62.74l1,2.7a1.26,1.26,0,0,1-.74,1.62h0a1.26,1.26,0,0,1-1.62-.74l-1-2.7A1.26,1.26,0,0,1,22.47,32.47Z" transform="translate(-20.65 -22)"/><path id="矩形_347" data-name="矩形 347" class="cls-1" d="M36.62,37.57h0A1.26,1.26,0,0,1,35.87,36l1-2.7a1.26,1.26,0,0,1,1.62-.74h0a1.26,1.26,0,0,1,.74,1.62l-1,2.7A1.25,1.25,0,0,1,36.62,37.57Z" transform="translate(-20.65 -22)"/></g></svg>