<svg id="图层_1" data-name="图层 1" xmlns="http://www.w3.org/2000/svg" xmlns:xlink="http://www.w3.org/1999/xlink" viewBox="0 0 2497.55 1639.72"><defs><style>.cls-1{fill:#dd8d72;}.cls-2{fill:url(#未命名的渐变_4);}.cls-3,.cls-5{fill:#fff;}.cls-4,.cls-5{isolation:isolate;}.cls-5{font-size:7px;font-family:SourceHanSansCN-Normal-GBpc-EUC-H, Source Han Sans CN;}.cls-6{fill:url(#未命名的渐变_4-3);}</style><linearGradient id="未命名的渐变_4" x1="-49.05" y1="73.18" x2="-48.05" y2="73.18" gradientTransform="matrix(19, 0, 0, -19, 3410.55, 3020.72)" gradientUnits="userSpaceOnUse"><stop offset="0" stop-color="#eeba6f"/><stop offset="1" stop-color="#d47772"/></linearGradient><linearGradient id="未命名的渐变_4-3" x1="15.58" y1="30.67" x2="16.58" y2="30.67" gradientTransform="matrix(19, 0, 0, -19, 932, 1417.48)" xlink:href="#未命名的渐变_4"/></defs><title>我的商城tag</title><path id="路径_268" data-name="路径 268" class="cls-1" d="M-1229-801h37a2,2,0,0,1,2,2l-3.17,5,3.17,5a2,2,0,0,1-2,2h-37a2,2,0,0,1-2-2v-10A2,2,0,0,1-1229-801Z" transform="translate(1231 801)"/><circle id="椭圆_347" data-name="椭圆 347" class="cls-2" cx="2488.05" cy="1630.22" r="9.5"/><path id="路径_267" data-name="路径 267" class="cls-3" d="M1257.06,834.6a7.88,7.88,0,0,0-5.38-5.38,8.27,8.27,0,0,0,5.38-5.37,7.17,7.17,0,0,0,5.37,5.37A9,9,0,0,0,1257.06,834.6Z" transform="translate(1231 801)"/><g id="我的商城" class="cls-4"><text class="cls-5" transform="translate(8 10)">我的商城</text></g><path id="路径_268-2" data-name="路径 268" class="cls-1" d="M-1229-801h37a2,2,0,0,1,2,2l-3.17,5,3.17,5a2,2,0,0,1-2,2h-37a2,2,0,0,1-2-2v-10A2,2,0,0,1-1229-801Z" transform="translate(1231 801)"/><circle id="椭圆_347-2" data-name="椭圆 347" class="cls-2" cx="2488.05" cy="1630.22" r="9.5"/><path id="路径_267-2" data-name="路径 267" class="cls-3" d="M1257.06,834.6a7.88,7.88,0,0,0-5.38-5.38,8.27,8.27,0,0,0,5.38-5.37,7.17,7.17,0,0,0,5.37,5.37A9,9,0,0,0,1257.06,834.6Z" transform="translate(1231 801)"/><g id="我的商城-2" data-name="我的商城" class="cls-4"><text class="cls-5" transform="translate(8 10)">我的商城</text></g><g id="组_369" data-name="组 369"><path id="路径_268-3" data-name="路径 268" class="cls-1" d="M11,27.76H48a2,2,0,0,1,2,2l-3.17,5,3.17,5a2,2,0,0,1-2,2H11a2,2,0,0,1-2-2v-10A2,2,0,0,1,11,27.76Z" transform="translate(1231 801)"/><g id="组_331" data-name="组 331"><circle id="椭圆_347-3" data-name="椭圆 347" class="cls-6" cx="1237.5" cy="834.74" r="9.5"/><path id="路径_267-3" data-name="路径 267" class="cls-3" d="M6.5,39.11a7.88,7.88,0,0,0-5.37-5.37A8.3,8.3,0,0,0,6.5,28.37a7.17,7.17,0,0,0,5.37,5.37A9,9,0,0,0,6.5,39.11Z" transform="translate(1231 801)"/></g><g id="我的商城-3" data-name="我的商城" class="cls-4"><text class="cls-5" transform="translate(1248 838.76)">我的商城</text></g></g></svg>