<svg id="图层_1" data-name="图层 1" xmlns="http://www.w3.org/2000/svg" viewBox="0 0 32 32"><defs><style>.cls-1{fill:#fff;}.cls-2{fill:#989798;}.cls-3{fill:none;stroke:#989798;stroke-linecap:round;stroke-linejoin:round;stroke-width:2px;}</style></defs><title>链接</title><g id="路径_141" data-name="路径 141"><path class="cls-1" d="M27.55,43a15,15,0,1,1,10.6-4.4A14.88,14.88,0,0,1,27.55,43Z" transform="translate(-11.55 -12)"/><path class="cls-2" d="M27.55,14a14,14,0,1,0,9.9,4.1,13.88,13.88,0,0,0-9.9-4.1m0-2a16,16,0,1,1-16,16A16,16,0,0,1,27.55,12Z" transform="translate(-11.55 -12)"/></g><g id="组_199" data-name="组 199"><g id="组_198" data-name="组 198"><path id="路径_138" data-name="路径 138" class="cls-3" d="M28.76,35.71c1,1.35,3.16,1.44,4.78.21s2.12-3.31,1.1-4.66L29.29,24.2" transform="translate(-11.55 -12)"/><path id="路径_139" data-name="路径 139" class="cls-3" d="M28.89,28.58a2.21,2.21,0,0,1-3.48,2.63l-4.82-6.29a3.27,3.27,0,0,1,.88-4.51,3.88,3.88,0,0,1,4.89-.07l3.78,5" transform="translate(-11.55 -12)"/><line id="直线_141" data-name="直线 141" class="cls-3" x1="15" y1="13.5" x2="17.31" y2="16.55"/><path id="路径_140" data-name="路径 140" class="cls-3" d="M24.62,27a1.2,1.2,0,0,1,1.92-1.45" transform="translate(-11.55 -12)"/></g></g></svg>